<svg width="75" height="20" viewBox="0 0 75 20" fill="none" xmlns="http://www.w3.org/2000/svg">
<path d="M0 10C0 4.47715 4.47715 0 10 0H65C70.5228 0 75 4.47715 75 10V10C75 15.5228 70.5228 20 65 20H10C4.47715 20 0 15.5228 0 10V10Z" fill="#92BC2C"/>
<path fill-rule="evenodd" clip-rule="evenodd" d="M14.0253 3.01469C14.0363 2.99911 14.0577 2.99532 14.0733 3.00623L15.1384 3.752C15.1539 3.76291 15.1577 3.78437 15.1468 3.79995L13.6644 5.91701C14.3851 6.14725 14.8761 6.3956 14.8761 6.3956C14.8761 6.3956 13.676 8.45991 11.6404 8.45991C9.60493 8.45991 8.15852 6.53593 8.15852 6.53593C8.15852 6.53593 8.67139 6.20862 9.43164 5.9279L7.80566 3.99016C7.79345 3.97559 7.79535 3.95388 7.80991 3.94165L8.80592 3.1059C8.82051 3.09367 8.84222 3.09557 8.85443 3.11014L10.9132 5.56366C11.0895 5.54372 11.2691 5.53258 11.4503 5.53258C11.7108 5.53258 11.9709 5.55238 12.2249 5.58599L14.0253 3.01469ZM14.428 8.55768C14.9712 8.16973 15.7932 7.15717 15.7932 7.15717C15.7932 7.15717 17.8927 8.82094 17.8927 12.3488C17.8927 15.8765 14.263 17.9998 14.263 17.9998C14.263 17.9998 12.5287 16.2484 12.103 14.0282C11.6773 11.8081 12.7328 9.34286 12.7328 9.34286C12.7328 9.34286 13.8848 8.94563 14.428 8.55768V8.55768ZM8.57796 8.55768C8.03477 8.16973 7.21281 7.15717 7.21281 7.15717C7.21281 7.15717 5.11328 8.82094 5.11328 12.3488C5.11328 15.8765 8.74305 17.9998 8.74305 17.9998C8.74305 17.9998 10.4773 16.2484 10.903 14.0282C11.3287 11.8081 10.2733 9.34286 10.2733 9.34286C10.2733 9.34286 9.12118 8.94563 8.57796 8.55768V8.55768Z" fill="white"/>
<path d="M39.5205 9.87988H37.6943L37.6846 8.87402H39.2178C39.488 8.87402 39.7093 8.83984 39.8818 8.77148C40.0544 8.69987 40.1829 8.59733 40.2676 8.46387C40.3555 8.32715 40.3994 8.16113 40.3994 7.96582C40.3994 7.74447 40.3571 7.56543 40.2725 7.42871C40.1911 7.29199 40.0625 7.19271 39.8867 7.13086C39.7142 7.06901 39.4912 7.03809 39.2178 7.03809H38.2021V13H36.7373V5.89062H39.2178C39.6312 5.89062 40.0007 5.92969 40.3262 6.00781C40.6549 6.08594 40.9333 6.20475 41.1611 6.36426C41.389 6.52376 41.5632 6.72559 41.6836 6.96973C41.804 7.21061 41.8643 7.49707 41.8643 7.8291C41.8643 8.12207 41.7975 8.39225 41.6641 8.63965C41.5339 8.88704 41.3271 9.08887 41.0439 9.24512C40.764 9.40137 40.3978 9.48763 39.9453 9.50391L39.5205 9.87988ZM39.457 13H37.2939L37.8652 11.8574H39.457C39.7142 11.8574 39.9242 11.8167 40.0869 11.7354C40.2497 11.6507 40.3701 11.5368 40.4482 11.3936C40.5264 11.2503 40.5654 11.0859 40.5654 10.9004C40.5654 10.6921 40.5296 10.5114 40.458 10.3584C40.3896 10.2054 40.279 10.0882 40.126 10.0068C39.973 9.9222 39.7712 9.87988 39.5205 9.87988H38.1094L38.1191 8.87402H39.877L40.2139 9.26953C40.6468 9.26302 40.9951 9.33952 41.2588 9.49902C41.5257 9.65527 41.7194 9.85872 41.8398 10.1094C41.9635 10.36 42.0254 10.6286 42.0254 10.915C42.0254 11.3708 41.9261 11.7549 41.7275 12.0674C41.529 12.3766 41.2376 12.6094 40.8535 12.7656C40.4727 12.9219 40.0072 13 39.457 13ZM47.0498 5.89062H48.5098V10.5879C48.5098 11.1348 48.3926 11.5954 48.1582 11.9697C47.9271 12.3441 47.6064 12.6257 47.1963 12.8145C46.7894 13.0033 46.3206 13.0977 45.79 13.0977C45.2594 13.0977 44.7874 13.0033 44.374 12.8145C43.9639 12.6257 43.6416 12.3441 43.4072 11.9697C43.1761 11.5954 43.0605 11.1348 43.0605 10.5879V5.89062H44.5254V10.5879C44.5254 10.9069 44.5758 11.1673 44.6768 11.3691C44.7777 11.571 44.9225 11.7191 45.1113 11.8135C45.3034 11.9079 45.5296 11.9551 45.79 11.9551C46.057 11.9551 46.2832 11.9079 46.4688 11.8135C46.6576 11.7191 46.8008 11.571 46.8984 11.3691C46.9993 11.1673 47.0498 10.9069 47.0498 10.5879V5.89062ZM55.3506 9.28418V12.1016C55.2399 12.235 55.069 12.3799 54.8379 12.5361C54.6068 12.6891 54.3089 12.821 53.9443 12.9316C53.5798 13.0423 53.1387 13.0977 52.6211 13.0977C52.1621 13.0977 51.7438 13.0228 51.3662 12.873C50.9886 12.7201 50.6631 12.4971 50.3896 12.2041C50.1195 11.9111 49.9111 11.5531 49.7646 11.1299C49.6182 10.7035 49.5449 10.2168 49.5449 9.66992V9.22559C49.5449 8.67871 49.6149 8.19206 49.7549 7.76562C49.8981 7.33919 50.1016 6.97949 50.3652 6.68652C50.6289 6.39355 50.943 6.17057 51.3076 6.01758C51.6722 5.86458 52.0775 5.78809 52.5234 5.78809C53.1419 5.78809 53.6497 5.889 54.0469 6.09082C54.444 6.28939 54.7467 6.56608 54.9551 6.9209C55.1667 7.27246 55.2969 7.67611 55.3457 8.13184H53.9248C53.889 7.89095 53.8206 7.68099 53.7197 7.50195C53.6188 7.32292 53.474 7.18294 53.2852 7.08203C53.0996 6.98112 52.8587 6.93066 52.5625 6.93066C52.3184 6.93066 52.1003 6.98112 51.9082 7.08203C51.7194 7.17969 51.5599 7.32454 51.4297 7.5166C51.2995 7.70866 51.2002 7.94629 51.1318 8.22949C51.0635 8.5127 51.0293 8.84147 51.0293 9.21582V9.66992C51.0293 10.041 51.0651 10.3698 51.1367 10.6562C51.2083 10.9395 51.3141 11.1787 51.4541 11.374C51.5973 11.5661 51.7731 11.7109 51.9814 11.8086C52.1898 11.9062 52.4323 11.9551 52.709 11.9551C52.9401 11.9551 53.1322 11.9355 53.2852 11.8965C53.4414 11.8574 53.5667 11.8102 53.6611 11.7549C53.7588 11.6963 53.8337 11.641 53.8857 11.5889V10.3291H52.5479V9.28418H55.3506Z" fill="white"/>
</svg>
