<svg width="75" height="20" viewBox="0 0 75 20" fill="none" xmlns="http://www.w3.org/2000/svg">
<path d="M0 10C0 4.47715 4.47715 0 10 0H65C70.5228 0 75 4.47715 75 10V10C75 15.5228 70.5228 20 65 20H10C4.47715 20 0 15.5228 0 10V10Z" fill="#595761"/>
<path d="M35.8779 14H34.3301L34.3398 12.8574H35.8779C36.262 12.8574 36.5859 12.7712 36.8496 12.5986C37.1133 12.4229 37.3118 12.1673 37.4453 11.832C37.582 11.4967 37.6504 11.0915 37.6504 10.6162V10.2695C37.6504 9.90495 37.6113 9.58431 37.5332 9.30762C37.4583 9.03092 37.346 8.79818 37.1963 8.60938C37.0465 8.42057 36.8626 8.27897 36.6445 8.18457C36.4264 8.08691 36.1758 8.03809 35.8926 8.03809H34.3008V6.89062H35.8926C36.3678 6.89062 36.8024 6.97201 37.1963 7.13477C37.5934 7.29427 37.9368 7.52376 38.2266 7.82324C38.5163 8.12272 38.7393 8.48079 38.8955 8.89746C39.055 9.31087 39.1348 9.77148 39.1348 10.2793V10.6162C39.1348 11.1208 39.055 11.5814 38.8955 11.998C38.7393 12.4147 38.5163 12.7728 38.2266 13.0723C37.9401 13.3685 37.5967 13.598 37.1963 13.7607C36.7992 13.9202 36.3597 14 35.8779 14ZM35.1602 6.89062V14H33.6953V6.89062H35.1602ZM42.9824 8.10645L41.0488 14H39.4912L42.1328 6.89062H43.124L42.9824 8.10645ZM44.5889 14L42.6504 8.10645L42.4941 6.89062H43.4951L46.1514 14H44.5889ZM44.501 11.3535V12.501H40.7461V11.3535H44.501ZM46.8105 6.89062H49.4619C50.0055 6.89062 50.4727 6.97201 50.8633 7.13477C51.2572 7.29753 51.5599 7.53841 51.7715 7.85742C51.9831 8.17643 52.0889 8.56868 52.0889 9.03418C52.0889 9.41504 52.0238 9.74219 51.8936 10.0156C51.7666 10.2858 51.5859 10.512 51.3516 10.6943C51.1204 10.8734 50.8486 11.0166 50.5361 11.124L50.0723 11.3682H47.7676L47.7578 10.2256H49.4717C49.7288 10.2256 49.9421 10.18 50.1113 10.0889C50.2806 9.99772 50.4076 9.87077 50.4922 9.70801C50.5801 9.54525 50.624 9.35645 50.624 9.1416C50.624 8.91374 50.5817 8.7168 50.4971 8.55078C50.4124 8.38477 50.2839 8.25781 50.1113 8.16992C49.9388 8.08203 49.7223 8.03809 49.4619 8.03809H48.2754V14H46.8105V6.89062ZM50.7852 14L49.1641 10.8311L50.7119 10.8213L52.3525 13.9316V14H50.7852ZM54.6816 6.89062V14H53.2168V6.89062H54.6816ZM58.9395 6.89062L56.1221 10.4014L54.4961 12.1494L54.2324 10.7627L55.3311 9.25879L57.1426 6.89062H58.9395ZM57.2744 14L55.1797 10.7139L56.2637 9.80566L59.0078 14H57.2744Z" fill="white"/>
<g clip-path="url(#clip0_2_86)">
<path fill-rule="evenodd" clip-rule="evenodd" d="M10.7201 16.2671C11.0051 16.3107 11.2969 16.3333 11.5941 16.3333C14.7582 16.3333 17.3233 13.7683 17.3233 10.6042C17.3233 7.44003 14.7582 4.875 11.5941 4.875C11.3818 4.875 11.1722 4.88655 10.9659 4.90905C12.5355 6.09817 13.5733 8.15807 13.5733 10.5C13.5733 12.9621 12.4262 15.1125 10.7201 16.2671ZM11.4899 18C15.6321 18 18.9899 14.6421 18.9899 10.5C18.9899 6.35786 15.6321 3 11.4899 3C7.34778 3 3.98993 6.35786 3.98993 10.5C3.98993 14.6421 7.34778 18 11.4899 18Z" fill="white"/>
</g>
<defs>
<clipPath id="clip0_2_86">
<rect width="15" height="15" fill="white" transform="translate(4 3)"/>
</clipPath>
</defs>
</svg>
