<svg width="75" height="20" viewBox="0 0 75 20" fill="none" xmlns="http://www.w3.org/2000/svg">
<path d="M0 10C0 4.47715 4.47715 0 10 0H65C70.5228 0 75 4.47715 75 10V10C75 15.5228 70.5228 20 65 20H10C4.47715 20 0 15.5228 0 10V10Z" fill="#0C69C8"/>
<g clip-path="url(#clip0_2_87)">
<path fill-rule="evenodd" clip-rule="evenodd" d="M12.2237 10.4672C12.3254 10.4052 12.4116 10.2753 12.4812 10.1309C13.3965 10.5051 14.0398 11.3891 14.0398 12.4201C14.0398 13.7897 12.9046 14.9001 11.5042 14.9001C10.9293 14.9001 10.3991 14.7129 9.97381 14.3976C9.8343 14.3316 9.71951 14.2681 9.62559 14.2162C9.47989 14.1356 9.38436 14.0828 9.32453 14.0911C9.14966 14.1152 9.20043 14.2761 9.24657 14.4222C9.27789 14.5215 9.3071 14.614 9.2619 14.6522C9.21461 14.6921 9.06145 14.5461 8.88247 14.3754C8.63884 14.1432 8.34739 13.8653 8.20996 13.9487C8.1013 14.0147 8.2068 14.1938 8.33594 14.4129L8.34552 14.4292C8.40007 14.5218 8.46329 14.6162 8.52098 14.7022C8.63825 14.8772 8.73271 15.0181 8.68545 15.042C8.62832 15.0708 8.23029 14.8022 7.89487 14.4292C7.76541 14.2852 7.64002 14.1292 7.52348 13.9842V13.9842C7.26839 13.6668 7.05587 13.4024 6.93657 13.4337C6.79306 13.4714 6.90162 13.7674 7.06114 14.0522C7.13573 14.1855 7.22348 14.3211 7.29944 14.4386V14.4386C7.4176 14.6212 7.50728 14.7598 7.47476 14.7769C7.43087 14.7998 7.04471 14.4233 6.78242 13.9487C6.62664 13.6669 6.49583 13.3554 6.38993 13.1032C6.27508 12.8297 6.18953 12.626 6.1332 12.6055C5.93748 12.5343 5.93748 12.9334 6.01597 13.5093C6.02621 13.5845 6.04146 13.6633 6.06024 13.7435C6.82149 16.2066 9.16 18 11.9268 18C15.3111 18 18.0545 15.3168 18.0545 12.0068C18.0545 8.85645 15.5693 6.27384 12.4117 6.03205C12.4157 5.88364 12.4932 5.58935 12.4932 5.58935C12.4932 5.58935 13.0506 4.24064 13.0801 3.95244C13.082 3.93331 13.0843 3.91252 13.0868 3.89039C13.1215 3.57899 13.1861 3 12.688 3C12.422 3 12.2983 3.19789 12.1568 3.42422V3.42422C12.1025 3.5111 12.0456 3.60218 11.977 3.68786C11.4828 4.30499 10.6518 5.07565 10.1806 5.48622C9.1847 6.35402 8.20759 7.06723 7.63771 7.48318L7.63768 7.48321C7.37849 7.67238 7.20355 7.80009 7.14941 7.85285C6.74143 8.25059 5.27857 10.8892 5.27857 10.8892C5.27857 10.8892 4.8055 11.7358 4.97365 11.9075C5.1418 12.0792 5.54729 12.0398 5.54729 12.0398C5.54729 12.0398 10.9948 10.7901 11.4825 10.6916C11.6138 10.665 11.7065 10.6497 11.7776 10.638C11.9709 10.6061 12.0055 10.6003 12.2237 10.4672ZM8.37212 8.86125C8.07971 9.13919 7.59476 9.80262 7.59476 9.80262C7.59476 9.80262 8.49605 9.85813 8.99242 9.38631C9.48883 8.91445 9.3751 8.11034 9.3751 8.11034C9.3751 8.11034 8.6645 8.58331 8.37212 8.86125Z" fill="white"/>
</g>
<path d="M29.1611 14H27.6133L27.623 12.8574H29.1611C29.5452 12.8574 29.8691 12.7712 30.1328 12.5986C30.3965 12.4229 30.5951 12.1673 30.7285 11.832C30.8652 11.4967 30.9336 11.0915 30.9336 10.6162V10.2695C30.9336 9.90495 30.8945 9.58431 30.8164 9.30762C30.7415 9.03092 30.6292 8.79818 30.4795 8.60938C30.3298 8.42057 30.1458 8.27897 29.9277 8.18457C29.7096 8.08691 29.459 8.03809 29.1758 8.03809H27.584V6.89062H29.1758C29.651 6.89062 30.0856 6.97201 30.4795 7.13477C30.8766 7.29427 31.2201 7.52376 31.5098 7.82324C31.7995 8.12272 32.0225 8.48079 32.1787 8.89746C32.3382 9.31087 32.418 9.77148 32.418 10.2793V10.6162C32.418 11.1208 32.3382 11.5814 32.1787 11.998C32.0225 12.4147 31.7995 12.7728 31.5098 13.0723C31.2233 13.3685 30.8799 13.598 30.4795 13.7607C30.0824 13.9202 29.6429 14 29.1611 14ZM28.4434 6.89062V14H26.9785V6.89062H28.4434ZM33.4824 6.89062H36.1338C36.6774 6.89062 37.1445 6.97201 37.5352 7.13477C37.929 7.29753 38.2318 7.53841 38.4434 7.85742C38.6549 8.17643 38.7607 8.56868 38.7607 9.03418C38.7607 9.41504 38.6956 9.74219 38.5654 10.0156C38.4385 10.2858 38.2578 10.512 38.0234 10.6943C37.7923 10.8734 37.5205 11.0166 37.208 11.124L36.7441 11.3682H34.4395L34.4297 10.2256H36.1436C36.4007 10.2256 36.6139 10.18 36.7832 10.0889C36.9525 9.99772 37.0794 9.87077 37.1641 9.70801C37.252 9.54525 37.2959 9.35645 37.2959 9.1416C37.2959 8.91374 37.2536 8.7168 37.1689 8.55078C37.0843 8.38477 36.9557 8.25781 36.7832 8.16992C36.6107 8.08203 36.3942 8.03809 36.1338 8.03809H34.9473V14H33.4824V6.89062ZM37.457 14L35.8359 10.8311L37.3838 10.8213L39.0244 13.9316V14H37.457ZM42.7793 8.10645L40.8457 14H39.2881L41.9297 6.89062H42.9209L42.7793 8.10645ZM44.3857 14L42.4473 8.10645L42.291 6.89062H43.292L45.9482 14H44.3857ZM44.2979 11.3535V12.501H40.543V11.3535H44.2979ZM52.1543 10.2842V13.1016C52.0436 13.235 51.8727 13.3799 51.6416 13.5361C51.4105 13.6891 51.1126 13.821 50.748 13.9316C50.3835 14.0423 49.9424 14.0977 49.4248 14.0977C48.9658 14.0977 48.5475 14.0228 48.1699 13.873C47.7923 13.7201 47.4668 13.4971 47.1934 13.2041C46.9232 12.9111 46.7148 12.5531 46.5684 12.1299C46.4219 11.7035 46.3486 11.2168 46.3486 10.6699V10.2256C46.3486 9.67871 46.4186 9.19206 46.5586 8.76562C46.7018 8.33919 46.9053 7.97949 47.1689 7.68652C47.4326 7.39355 47.7467 7.17057 48.1113 7.01758C48.4759 6.86458 48.8812 6.78809 49.3271 6.78809C49.9456 6.78809 50.4535 6.889 50.8506 7.09082C51.2477 7.28939 51.5505 7.56608 51.7588 7.9209C51.9704 8.27246 52.1006 8.67611 52.1494 9.13184H50.7285C50.6927 8.89095 50.6243 8.68099 50.5234 8.50195C50.4225 8.32292 50.2777 8.18294 50.0889 8.08203C49.9033 7.98112 49.6624 7.93066 49.3662 7.93066C49.1221 7.93066 48.904 7.98112 48.7119 8.08203C48.5231 8.17969 48.3636 8.32454 48.2334 8.5166C48.1032 8.70866 48.0039 8.94629 47.9355 9.22949C47.8672 9.5127 47.833 9.84147 47.833 10.2158V10.6699C47.833 11.041 47.8688 11.3698 47.9404 11.6562C48.012 11.9395 48.1178 12.1787 48.2578 12.374C48.401 12.5661 48.5768 12.7109 48.7852 12.8086C48.9935 12.9062 49.236 12.9551 49.5127 12.9551C49.7438 12.9551 49.9359 12.9355 50.0889 12.8965C50.2451 12.8574 50.3704 12.8102 50.4648 12.7549C50.5625 12.6963 50.6374 12.641 50.6895 12.5889V11.3291H49.3516V10.2842H52.1543ZM59.1758 10.2793V10.6162C59.1758 11.1566 59.1025 11.6416 58.9561 12.0713C58.8096 12.501 58.6029 12.8672 58.3359 13.1699C58.069 13.4694 57.75 13.6989 57.3789 13.8584C57.0111 14.0179 56.6025 14.0977 56.1533 14.0977C55.7074 14.0977 55.2988 14.0179 54.9277 13.8584C54.5599 13.6989 54.2409 13.4694 53.9707 13.1699C53.7005 12.8672 53.4906 12.501 53.3408 12.0713C53.1943 11.6416 53.1211 11.1566 53.1211 10.6162V10.2793C53.1211 9.73568 53.1943 9.25065 53.3408 8.82422C53.4873 8.39453 53.694 8.02832 53.9609 7.72559C54.2311 7.42285 54.5501 7.19173 54.918 7.03223C55.2891 6.87272 55.6976 6.79297 56.1436 6.79297C56.5928 6.79297 57.0013 6.87272 57.3691 7.03223C57.7402 7.19173 58.0592 7.42285 58.3262 7.72559C58.5964 8.02832 58.8047 8.39453 58.9512 8.82422C59.1009 9.25065 59.1758 9.73568 59.1758 10.2793ZM57.6963 10.6162V10.2695C57.6963 9.89193 57.6621 9.5599 57.5938 9.27344C57.5254 8.98698 57.4245 8.74609 57.291 8.55078C57.1576 8.35547 56.9948 8.20898 56.8027 8.11133C56.6107 8.01042 56.391 7.95996 56.1436 7.95996C55.8962 7.95996 55.6764 8.01042 55.4844 8.11133C55.2956 8.20898 55.1344 8.35547 55.001 8.55078C54.8708 8.74609 54.7715 8.98698 54.7031 9.27344C54.6348 9.5599 54.6006 9.89193 54.6006 10.2695V10.6162C54.6006 10.9906 54.6348 11.3226 54.7031 11.6123C54.7715 11.8988 54.8724 12.1413 55.0059 12.3398C55.1393 12.5352 55.3021 12.6833 55.4941 12.7842C55.6862 12.8851 55.9059 12.9355 56.1533 12.9355C56.4007 12.9355 56.6204 12.8851 56.8125 12.7842C57.0046 12.6833 57.1657 12.5352 57.2959 12.3398C57.4261 12.1413 57.5254 11.8988 57.5938 11.6123C57.6621 11.3226 57.6963 10.9906 57.6963 10.6162ZM66.0166 6.89062V14H64.5518L61.6953 9.23438V14H60.2305V6.89062H61.6953L64.5566 11.6611V6.89062H66.0166Z" fill="white"/>
<defs>
<clipPath id="clip0_2_87">
<rect width="15" height="15" fill="white" transform="translate(4 3)"/>
</clipPath>
</defs>
</svg>
