<svg width="75" height="20" viewBox="0 0 75 20" fill="none" xmlns="http://www.w3.org/2000/svg">
<path d="M0 10C0 4.47715 4.47715 0 10 0H65C70.5228 0 75 4.47715 75 10V10C75 15.5228 70.5228 20 65 20H10C4.47715 20 0 15.5228 0 10V10Z" fill="#F2D94E"/>
<path d="M28.8369 12.8574V14H25.0527V12.8574H28.8369ZM25.5312 6.89062V14H24.0664V6.89062H25.5312ZM28.3438 9.78613V10.8994H25.0527V9.78613H28.3438ZM28.832 6.89062V8.03809H25.0527V6.89062H28.832ZM34.2617 12.8574V14H30.6826V12.8574H34.2617ZM31.1562 6.89062V14H29.6914V6.89062H31.1562ZM39.8721 12.8574V14H36.0879V12.8574H39.8721ZM36.5664 6.89062V14H35.1016V6.89062H36.5664ZM39.3789 9.78613V10.8994H36.0879V9.78613H39.3789ZM39.8672 6.89062V8.03809H36.0879V6.89062H39.8672ZM44.8477 11.6416H46.3076C46.2783 12.1201 46.1465 12.5449 45.9121 12.916C45.681 13.2871 45.3571 13.5768 44.9404 13.7852C44.527 13.9935 44.029 14.0977 43.4463 14.0977C42.9906 14.0977 42.582 14.0195 42.2207 13.8633C41.8594 13.7038 41.5501 13.4759 41.293 13.1797C41.0391 12.8835 40.8454 12.5254 40.7119 12.1055C40.5785 11.6855 40.5117 11.2152 40.5117 10.6943V10.2012C40.5117 9.68034 40.5801 9.20996 40.7168 8.79004C40.8568 8.36686 41.0553 8.00716 41.3125 7.71094C41.5729 7.41471 41.8838 7.18685 42.2451 7.02734C42.6064 6.86784 43.0101 6.78809 43.4561 6.78809C44.0485 6.78809 44.5482 6.89551 44.9551 7.11035C45.3652 7.3252 45.6826 7.62142 45.9072 7.99902C46.1351 8.37663 46.2718 8.80632 46.3174 9.28809H44.8525C44.8363 9.00163 44.7793 8.75911 44.6816 8.56055C44.584 8.35872 44.4359 8.20736 44.2373 8.10645C44.042 8.00228 43.7816 7.9502 43.4561 7.9502C43.2119 7.9502 42.9987 7.99577 42.8164 8.08691C42.6341 8.17806 42.4811 8.31641 42.3574 8.50195C42.2337 8.6875 42.141 8.92188 42.0791 9.20508C42.0205 9.48503 41.9912 9.8138 41.9912 10.1914V10.6943C41.9912 11.0622 42.0189 11.3861 42.0742 11.666C42.1296 11.9427 42.2142 12.1771 42.3281 12.3691C42.4453 12.5579 42.5951 12.7012 42.7773 12.7988C42.9629 12.8932 43.1859 12.9404 43.4463 12.9404C43.7523 12.9404 44.0046 12.8916 44.2031 12.7939C44.4017 12.6963 44.5531 12.5514 44.6572 12.3594C44.7646 12.1673 44.8281 11.9281 44.8477 11.6416ZM50.3018 6.89062V14H48.8418V6.89062H50.3018ZM52.4893 6.89062V8.03809H46.6885V6.89062H52.4893ZM53.3242 6.89062H55.9756C56.5192 6.89062 56.9863 6.97201 57.377 7.13477C57.7708 7.29753 58.0736 7.53841 58.2852 7.85742C58.4967 8.17643 58.6025 8.56868 58.6025 9.03418C58.6025 9.41504 58.5374 9.74219 58.4072 10.0156C58.2803 10.2858 58.0996 10.512 57.8652 10.6943C57.6341 10.8734 57.3623 11.0166 57.0498 11.124L56.5859 11.3682H54.2812L54.2715 10.2256H55.9854C56.2425 10.2256 56.4557 10.18 56.625 10.0889C56.7943 9.99772 56.9212 9.87077 57.0059 9.70801C57.0938 9.54525 57.1377 9.35645 57.1377 9.1416C57.1377 8.91374 57.0954 8.7168 57.0107 8.55078C56.9261 8.38477 56.7975 8.25781 56.625 8.16992C56.4525 8.08203 56.236 8.03809 55.9756 8.03809H54.7891V14H53.3242V6.89062ZM57.2988 14L55.6777 10.8311L57.2256 10.8213L58.8662 13.9316V14H57.2988ZM61.2881 6.89062V14H59.8281V6.89062H61.2881ZM66.7812 11.6416H68.2412C68.2119 12.1201 68.0801 12.5449 67.8457 12.916C67.6146 13.2871 67.2907 13.5768 66.874 13.7852C66.4606 13.9935 65.9626 14.0977 65.3799 14.0977C64.9242 14.0977 64.5156 14.0195 64.1543 13.8633C63.793 13.7038 63.4837 13.4759 63.2266 13.1797C62.9727 12.8835 62.779 12.5254 62.6455 12.1055C62.512 11.6855 62.4453 11.2152 62.4453 10.6943V10.2012C62.4453 9.68034 62.5137 9.20996 62.6504 8.79004C62.7904 8.36686 62.9889 8.00716 63.2461 7.71094C63.5065 7.41471 63.8174 7.18685 64.1787 7.02734C64.54 6.86784 64.9437 6.78809 65.3896 6.78809C65.9821 6.78809 66.4818 6.89551 66.8887 7.11035C67.2988 7.3252 67.6162 7.62142 67.8408 7.99902C68.0687 8.37663 68.2054 8.80632 68.251 9.28809H66.7861C66.7699 9.00163 66.7129 8.75911 66.6152 8.56055C66.5176 8.35872 66.3695 8.20736 66.1709 8.10645C65.9756 8.00228 65.7152 7.9502 65.3896 7.9502C65.1455 7.9502 64.9323 7.99577 64.75 8.08691C64.5677 8.17806 64.4147 8.31641 64.291 8.50195C64.1673 8.6875 64.0745 8.92188 64.0127 9.20508C63.9541 9.48503 63.9248 9.8138 63.9248 10.1914V10.6943C63.9248 11.0622 63.9525 11.3861 64.0078 11.666C64.0632 11.9427 64.1478 12.1771 64.2617 12.3691C64.3789 12.5579 64.5286 12.7012 64.7109 12.7988C64.8965 12.8932 65.1195 12.9404 65.3799 12.9404C65.6859 12.9404 65.9382 12.8916 66.1367 12.7939C66.3353 12.6963 66.4867 12.5514 66.5908 12.3594C66.6982 12.1673 66.7617 11.9281 66.7812 11.6416Z" fill="white"/>
<path fill-rule="evenodd" clip-rule="evenodd" d="M8.46954 3.0171C8.46664 3.00873 8.47288 3 8.48173 3H13.7502C13.7558 3 13.7608 3.00368 13.7625 3.00908L16.1824 10.8273C16.1849 10.8356 16.1787 10.844 16.17 10.844H12.6626C12.6583 10.844 12.6553 10.848 12.6564 10.8522L14.668 17.9334C14.672 17.9471 14.6539 17.9561 14.6453 17.9447L6.82802 7.54884C6.82163 7.54034 6.82769 7.52821 6.83832 7.52821H10.0216C10.026 7.52821 10.0291 7.52385 10.0276 7.51966L8.46954 3.0171Z" fill="white"/>
</svg>
