<svg width="75" height="20" viewBox="0 0 75 20" fill="none" xmlns="http://www.w3.org/2000/svg">
<path d="M0 10C0 4.47715 4.47715 0 10 0H65C70.5228 0 75 4.47715 75 10V10C75 15.5228 70.5228 20 65 20H10C4.47715 20 0 15.5228 0 10V10Z" fill="#EE90E6"/>
<path d="M35.2988 6.89062V14H33.834V6.89062H35.2988ZM38.1309 9.92773V11.0703H34.8984V9.92773H38.1309ZM38.4727 6.89062V8.03809H34.8984V6.89062H38.4727ZM41.3145 8.10645L39.3809 14H37.8232L40.4648 6.89062H41.4561L41.3145 8.10645ZM42.9209 14L40.9824 8.10645L40.8262 6.89062H41.8271L44.4834 14H42.9209ZM42.833 11.3535V12.501H39.0781V11.3535H42.833ZM46.7002 6.89062V14H45.2402V6.89062H46.7002ZM48.0723 6.89062H50.7236C51.2673 6.89062 51.7344 6.97201 52.125 7.13477C52.5189 7.29753 52.8216 7.53841 53.0332 7.85742C53.2448 8.17643 53.3506 8.56868 53.3506 9.03418C53.3506 9.41504 53.2855 9.74219 53.1553 10.0156C53.0283 10.2858 52.8477 10.512 52.6133 10.6943C52.3822 10.8734 52.1104 11.0166 51.7979 11.124L51.334 11.3682H49.0293L49.0195 10.2256H50.7334C50.9906 10.2256 51.2038 10.18 51.373 10.0889C51.5423 9.99772 51.6693 9.87077 51.7539 9.70801C51.8418 9.54525 51.8857 9.35645 51.8857 9.1416C51.8857 8.91374 51.8434 8.7168 51.7588 8.55078C51.6742 8.38477 51.5456 8.25781 51.373 8.16992C51.2005 8.08203 50.984 8.03809 50.7236 8.03809H49.5371V14H48.0723V6.89062ZM52.0469 14L50.4258 10.8311L51.9736 10.8213L53.6143 13.9316V14H52.0469ZM55.2207 6.89062L56.7051 10.1328L58.1895 6.89062H59.7861L57.4473 11.4121V14H55.9629V11.4121L53.6191 6.89062H55.2207Z" fill="white"/>
<g clip-path="url(#clip0_2_89)">
<path fill-rule="evenodd" clip-rule="evenodd" d="M7.00955 14.8939L9.41547 14.1963L11.4935 17.9958C11.4962 18.0007 11.5033 18.0007 11.506 17.9958L13.584 14.1963L15.99 14.8939C15.9953 14.8954 16.0004 14.8904 15.9987 14.885L15.301 12.5267L18.9958 10.506C19.0007 10.5033 19.0007 10.4962 18.9958 10.4935L15.2706 8.4561L15.9987 5.99487C16.0004 5.98948 15.9953 5.98447 15.99 5.98603L13.5276 6.70002L11.506 3.0037C11.5033 2.99877 11.4962 2.99877 11.4935 3.0037L9.47192 6.70002L7.00955 5.98603C7.00416 5.98447 6.99915 5.98948 7.00076 5.99487L7.72894 8.4561L4.0037 10.4935C3.99877 10.4962 3.99877 10.5033 4.0037 10.506L7.69847 12.5267L7.00076 14.885C6.99915 14.8904 7.00416 14.8954 7.00955 14.8939ZM8.87652 10.5257L10.581 11.4579L11.5132 13.1623C11.5159 13.1672 11.523 13.1672 11.5257 13.1623L12.4579 11.4579L14.1623 10.5257C14.1672 10.523 14.1672 10.5159 14.1623 10.5132L12.4579 9.58099L11.5257 7.87655C11.523 7.8716 11.5159 7.8716 11.5132 7.87655L10.581 9.58099L8.87652 10.5132C8.8716 10.5159 8.8716 10.523 8.87652 10.5257Z" fill="white"/>
</g>
<defs>
<clipPath id="clip0_2_89">
<rect width="15" height="15" fill="white" transform="translate(4 3)"/>
</clipPath>
</defs>
</svg>
