<svg width="75" height="20" viewBox="0 0 75 20" fill="none" xmlns="http://www.w3.org/2000/svg">
<path d="M0 10C0 4.47715 4.47715 0 10 0H65C70.5228 0 75 4.47715 75 10V10C75 15.5228 70.5228 20 65 20H10C4.47715 20 0 15.5228 0 10V10Z" fill="#D3425F"/>
<path d="M25.5215 6.89062V14H24.0566V6.89062H25.5215ZM28.3535 9.92773V11.0703H25.1211V9.92773H28.3535ZM28.6953 6.89062V8.03809H25.1211V6.89062H28.6953ZM31.1025 6.89062V14H29.6426V6.89062H31.1025ZM38.1094 10.2842V13.1016C37.9987 13.235 37.8278 13.3799 37.5967 13.5361C37.3656 13.6891 37.0677 13.821 36.7031 13.9316C36.3385 14.0423 35.8975 14.0977 35.3799 14.0977C34.9209 14.0977 34.5026 14.0228 34.125 13.873C33.7474 13.7201 33.4219 13.4971 33.1484 13.2041C32.8783 12.9111 32.6699 12.5531 32.5234 12.1299C32.377 11.7035 32.3037 11.2168 32.3037 10.6699V10.2256C32.3037 9.67871 32.3737 9.19206 32.5137 8.76562C32.6569 8.33919 32.8604 7.97949 33.124 7.68652C33.3877 7.39355 33.7018 7.17057 34.0664 7.01758C34.431 6.86458 34.8363 6.78809 35.2822 6.78809C35.9007 6.78809 36.4085 6.889 36.8057 7.09082C37.2028 7.28939 37.5055 7.56608 37.7139 7.9209C37.9255 8.27246 38.0557 8.67611 38.1045 9.13184H36.6836C36.6478 8.89095 36.5794 8.68099 36.4785 8.50195C36.3776 8.32292 36.2327 8.18294 36.0439 8.08203C35.8584 7.98112 35.6175 7.93066 35.3213 7.93066C35.0771 7.93066 34.859 7.98112 34.667 8.08203C34.4782 8.17969 34.3187 8.32454 34.1885 8.5166C34.0583 8.70866 33.959 8.94629 33.8906 9.22949C33.8223 9.5127 33.7881 9.84147 33.7881 10.2158V10.6699C33.7881 11.041 33.8239 11.3698 33.8955 11.6562C33.9671 11.9395 34.0729 12.1787 34.2129 12.374C34.3561 12.5661 34.5319 12.7109 34.7402 12.8086C34.9486 12.9062 35.1911 12.9551 35.4678 12.9551C35.6989 12.9551 35.891 12.9355 36.0439 12.8965C36.2002 12.8574 36.3255 12.8102 36.4199 12.7549C36.5176 12.6963 36.5924 12.641 36.6445 12.5889V11.3291H35.3066V10.2842H38.1094ZM44.0322 9.78613V10.9287H40.3213V9.78613H44.0322ZM40.7559 6.89062V14H39.291V6.89062H40.7559ZM45.0771 6.89062V14H43.6172V6.89062H45.0771ZM49.3838 6.89062V14H47.9238V6.89062H49.3838ZM51.5713 6.89062V8.03809H45.7705V6.89062H51.5713ZM53.9639 6.89062V14H52.5039V6.89062H53.9639ZM61.1221 6.89062V14H59.6572L56.8008 9.23438V14H55.3359V6.89062H56.8008L59.6621 11.6611V6.89062H61.1221ZM68.0312 10.2842V13.1016C67.9206 13.235 67.7497 13.3799 67.5186 13.5361C67.2874 13.6891 66.9896 13.821 66.625 13.9316C66.2604 14.0423 65.8193 14.0977 65.3018 14.0977C64.8428 14.0977 64.4245 14.0228 64.0469 13.873C63.6693 13.7201 63.3438 13.4971 63.0703 13.2041C62.8001 12.9111 62.5918 12.5531 62.4453 12.1299C62.2988 11.7035 62.2256 11.2168 62.2256 10.6699V10.2256C62.2256 9.67871 62.2956 9.19206 62.4355 8.76562C62.5788 8.33919 62.7822 7.97949 63.0459 7.68652C63.3096 7.39355 63.6237 7.17057 63.9883 7.01758C64.3529 6.86458 64.7581 6.78809 65.2041 6.78809C65.8226 6.78809 66.3304 6.889 66.7275 7.09082C67.1247 7.28939 67.4274 7.56608 67.6357 7.9209C67.8473 8.27246 67.9775 8.67611 68.0264 9.13184H66.6055C66.5697 8.89095 66.5013 8.68099 66.4004 8.50195C66.2995 8.32292 66.1546 8.18294 65.9658 8.08203C65.7803 7.98112 65.5394 7.93066 65.2432 7.93066C64.999 7.93066 64.7809 7.98112 64.5889 8.08203C64.4001 8.17969 64.2406 8.32454 64.1104 8.5166C63.9801 8.70866 63.8809 8.94629 63.8125 9.22949C63.7441 9.5127 63.71 9.84147 63.71 10.2158V10.6699C63.71 11.041 63.7458 11.3698 63.8174 11.6562C63.889 11.9395 63.9948 12.1787 64.1348 12.374C64.278 12.5661 64.4538 12.7109 64.6621 12.8086C64.8704 12.9062 65.113 12.9551 65.3896 12.9551C65.6208 12.9551 65.8128 12.9355 65.9658 12.8965C66.1221 12.8574 66.2474 12.8102 66.3418 12.7549C66.4395 12.6963 66.5143 12.641 66.5664 12.5889V11.3291H65.2285V10.2842H68.0312Z" fill="white"/>
<g clip-path="url(#clip0_2_90)">
<path fill-rule="evenodd" clip-rule="evenodd" d="M6.58497 4.24704C6.7665 3.53031 7.41581 3 8.18896 3C8.76889 3 9.27915 3.29838 9.57458 3.75H10.0584C10.3589 3.44155 10.7788 3.25 11.2435 3.25C11.9248 3.25 12.5099 3.66176 12.7635 4.25H13.1686C13.4224 4.09156 13.7223 4 14.0435 4C14.7248 4 15.3099 4.41176 15.5635 5H16.665C16.6744 5 16.6832 5.00254 16.6908 5.00696C16.7411 5.00235 16.792 5 16.8435 5C17.7573 5 18.498 5.74076 18.498 6.65455V11.6158L18.4981 11.625L18.498 11.6342V11.7057C18.498 11.7359 18.4972 11.7661 18.4956 11.7961C18.396 15.2378 15.3012 18 11.498 18C7.63205 18 4.49805 15.1458 4.49805 11.625C4.49805 9.92552 5.22827 8.38134 6.41856 7.23853C6.41559 8.89535 6.44358 10.6082 6.57258 10.5788C6.918 10.5001 6.64812 5.36834 6.58497 4.24704Z" fill="white"/>
</g>
<defs>
<clipPath id="clip0_2_90">
<rect width="15" height="15" fill="white" transform="translate(4 3)"/>
</clipPath>
</defs>
</svg>
