<svg width="75" height="20" viewBox="0 0 75 20" fill="none" xmlns="http://www.w3.org/2000/svg">
<path d="M0 10C0 4.47715 4.47715 0 10 0H65C70.5228 0 75 4.47715 75 10V10C75 15.5228 70.5228 20 65 20H10C4.47715 20 0 15.5228 0 10V10Z" fill="#FBA54C"/>
<path d="M38.375 6.89062V14H36.9102V6.89062H38.375ZM41.207 9.92773V11.0703H37.9746V9.92773H41.207ZM41.5488 6.89062V8.03809H37.9746V6.89062H41.5488ZM43.9561 6.89062V14H42.4961V6.89062H43.9561ZM45.3281 6.89062H47.9795C48.5231 6.89062 48.9902 6.97201 49.3809 7.13477C49.7747 7.29753 50.0775 7.53841 50.2891 7.85742C50.5007 8.17643 50.6064 8.56868 50.6064 9.03418C50.6064 9.41504 50.5413 9.74219 50.4111 10.0156C50.2842 10.2858 50.1035 10.512 49.8691 10.6943C49.638 10.8734 49.3662 11.0166 49.0537 11.124L48.5898 11.3682H46.2852L46.2754 10.2256H47.9893C48.2464 10.2256 48.4596 10.18 48.6289 10.0889C48.7982 9.99772 48.9251 9.87077 49.0098 9.70801C49.0977 9.54525 49.1416 9.35645 49.1416 9.1416C49.1416 8.91374 49.0993 8.7168 49.0146 8.55078C48.93 8.38477 48.8014 8.25781 48.6289 8.16992C48.4564 8.08203 48.2399 8.03809 47.9795 8.03809H46.793V14H45.3281V6.89062ZM49.3027 14L47.6816 10.8311L49.2295 10.8213L50.8701 13.9316V14H49.3027ZM56.5049 12.8574V14H52.7207V12.8574H56.5049ZM53.1992 6.89062V14H51.7344V6.89062H53.1992ZM56.0117 9.78613V10.8994H52.7207V9.78613H56.0117ZM56.5 6.89062V8.03809H52.7207V6.89062H56.5Z" fill="white"/>
<path fill-rule="evenodd" clip-rule="evenodd" d="M14.3201 13.5838C14.5054 12.9061 14.1457 11.513 14.1457 11.513C14.1457 11.513 13.8847 12.6479 13.477 13.0674C13.1292 13.4252 12.7031 13.6734 12.092 13.7386C12.5916 13.4959 12.9353 12.9898 12.9353 12.4049C12.9353 11.5839 12.2581 10.9182 11.4229 10.9182C10.5876 10.9182 9.9105 11.5839 9.9105 12.4049C9.9105 12.6292 9.96104 12.8418 10.0515 13.0325C9.52906 12.6163 9.44691 11.949 9.44691 11.949C9.44691 11.949 8.86355 14.371 10.471 15.5103C12.0783 16.6496 15.2271 15.6703 15.2271 15.6703C15.2271 15.6703 10.721 18.8409 7.38192 15.3901C4.50557 12.4175 6.63119 8.50399 6.63119 8.50399C6.63119 8.50399 6.53939 8.86704 6.53939 9.28848C6.53939 9.70991 6.76788 10.0306 6.76788 10.0306C6.76788 10.0306 7.44948 8.59388 7.97993 8.00961C8.48196 7.45666 9.11128 7.00818 9.65486 6.62082C10.0733 6.32264 10.4409 6.06066 10.6604 5.81513C11.8697 4.46295 11.1283 2 11.1283 2C11.1283 2 12.4914 3.20176 12.872 4.75384C13.0171 5.34547 12.9237 6.01862 12.8403 6.62059C12.7048 7.59781 12.5954 8.38745 13.574 8.33621C15.1555 8.25339 13.7812 5.81513 13.7812 5.81513C13.7812 5.81513 17.3687 7.70067 17.1007 10.9984C16.8327 14.2961 13.1794 15.0458 13.1794 15.0458C13.1794 15.0458 14.1347 14.2615 14.3201 13.5838Z" fill="white"/>
</svg>
