<svg width="75" height="20" viewBox="0 0 75 20" fill="none" xmlns="http://www.w3.org/2000/svg">
<path d="M0 10C0 4.47715 4.47715 0 10 0H65C70.5228 0 75 4.47715 75 10V10C75 15.5228 70.5228 20 65 20H10C4.47715 20 0 15.5228 0 10V10Z" fill="#A1BBEC"/>
<path d="M32.3057 6.89062V14H30.8408V6.89062H32.3057ZM35.1377 9.92773V11.0703H31.9053V9.92773H35.1377ZM35.4795 6.89062V8.03809H31.9053V6.89062H35.4795ZM40.8994 12.8574V14H37.3203V12.8574H40.8994ZM37.7939 6.89062V14H36.3291V6.89062H37.7939ZM41.4072 6.89062L42.8916 10.1328L44.376 6.89062H45.9727L43.6338 11.4121V14H42.1494V11.4121L39.8057 6.89062H41.4072ZM48.1797 6.89062V14H46.7197V6.89062H48.1797ZM55.3379 6.89062V14H53.873L51.0166 9.23438V14H49.5518V6.89062H51.0166L53.8779 11.6611V6.89062H55.3379ZM62.2471 10.2842V13.1016C62.1364 13.235 61.9655 13.3799 61.7344 13.5361C61.5033 13.6891 61.2054 13.821 60.8408 13.9316C60.4762 14.0423 60.0352 14.0977 59.5176 14.0977C59.0586 14.0977 58.6403 14.0228 58.2627 13.873C57.8851 13.7201 57.5596 13.4971 57.2861 13.2041C57.016 12.9111 56.8076 12.5531 56.6611 12.1299C56.5146 11.7035 56.4414 11.2168 56.4414 10.6699V10.2256C56.4414 9.67871 56.5114 9.19206 56.6514 8.76562C56.7946 8.33919 56.998 7.97949 57.2617 7.68652C57.5254 7.39355 57.8395 7.17057 58.2041 7.01758C58.5687 6.86458 58.974 6.78809 59.4199 6.78809C60.0384 6.78809 60.5462 6.889 60.9434 7.09082C61.3405 7.28939 61.6432 7.56608 61.8516 7.9209C62.0632 8.27246 62.1934 8.67611 62.2422 9.13184H60.8213C60.7855 8.89095 60.7171 8.68099 60.6162 8.50195C60.5153 8.32292 60.3704 8.18294 60.1816 8.08203C59.9961 7.98112 59.7552 7.93066 59.459 7.93066C59.2148 7.93066 58.9967 7.98112 58.8047 8.08203C58.6159 8.17969 58.4564 8.32454 58.3262 8.5166C58.196 8.70866 58.0967 8.94629 58.0283 9.22949C57.96 9.5127 57.9258 9.84147 57.9258 10.2158V10.6699C57.9258 11.041 57.9616 11.3698 58.0332 11.6562C58.1048 11.9395 58.2106 12.1787 58.3506 12.374C58.4938 12.5661 58.6696 12.7109 58.8779 12.8086C59.0863 12.9062 59.3288 12.9551 59.6055 12.9551C59.8366 12.9551 60.0286 12.9355 60.1816 12.8965C60.3379 12.8574 60.4632 12.8102 60.5576 12.7549C60.6553 12.6963 60.7301 12.641 60.7822 12.5889V11.3291H59.4443V10.2842H62.2471Z" fill="white"/>
<path fill-rule="evenodd" clip-rule="evenodd" d="M11.2357 16.9961C13.4331 16.9961 15.3143 15.7748 16.0909 14.0436C16.1004 14.0225 12.9729 14.8564 13.0726 14.5616C13.1171 14.43 15.0343 13.7296 16.4311 12.9127C17.2339 12.4432 17.6036 11.4492 17.6036 11.4492C17.6036 11.4492 16.2511 12.1059 15.5673 12.2725C14.1894 12.6082 12.9765 12.5721 12.9765 12.5371C12.9765 12.4615 14.9905 12.0788 17.7898 10.373C19.1065 9.57062 19.4641 8.18856 19.4641 8.18856C19.4641 8.18856 18.0165 9.05083 17.1414 9.33551C15.0661 10.0106 13.1723 10.214 13.1723 10.1227C13.1723 9.9271 14.8389 9.46881 16.6059 8.61261C17.5247 8.16744 18.3204 7.58584 19.2424 6.93905C20.7512 5.88082 21 3.99609 21 3.99609C21 3.99609 19.5119 4.95586 18.7857 5.27459C15.7893 6.58978 13.1434 7.27966 11.2357 7.42901C8.35594 7.65448 6 9.66375 6 12.2725C6 14.8813 8.3441 16.9961 11.2357 16.9961Z" fill="white"/>
</svg>
