<svg width="75" height="20" viewBox="0 0 75 20" fill="none" xmlns="http://www.w3.org/2000/svg">
<path d="M0 10C0 4.47715 4.47715 0 10 0H65C70.5228 0 75 4.47715 75 10V10C75 15.5228 70.5228 20 65 20H10C4.47715 20 0 15.5228 0 10V10Z" fill="#5F6DBC"/>
<path d="M35.7021 10.2842V13.1016C35.5915 13.235 35.4206 13.3799 35.1895 13.5361C34.9583 13.6891 34.6605 13.821 34.2959 13.9316C33.9313 14.0423 33.4902 14.0977 32.9727 14.0977C32.5137 14.0977 32.0954 14.0228 31.7178 13.873C31.3402 13.7201 31.0146 13.4971 30.7412 13.2041C30.471 12.9111 30.2627 12.5531 30.1162 12.1299C29.9697 11.7035 29.8965 11.2168 29.8965 10.6699V10.2256C29.8965 9.67871 29.9665 9.19206 30.1064 8.76562C30.2497 8.33919 30.4531 7.97949 30.7168 7.68652C30.9805 7.39355 31.2946 7.17057 31.6592 7.01758C32.0238 6.86458 32.429 6.78809 32.875 6.78809C33.4935 6.78809 34.0013 6.889 34.3984 7.09082C34.7956 7.28939 35.0983 7.56608 35.3066 7.9209C35.5182 8.27246 35.6484 8.67611 35.6973 9.13184H34.2764C34.2406 8.89095 34.1722 8.68099 34.0713 8.50195C33.9704 8.32292 33.8255 8.18294 33.6367 8.08203C33.4512 7.98112 33.2103 7.93066 32.9141 7.93066C32.6699 7.93066 32.4518 7.98112 32.2598 8.08203C32.071 8.17969 31.9115 8.32454 31.7812 8.5166C31.651 8.70866 31.5518 8.94629 31.4834 9.22949C31.415 9.5127 31.3809 9.84147 31.3809 10.2158V10.6699C31.3809 11.041 31.4167 11.3698 31.4883 11.6562C31.5599 11.9395 31.6657 12.1787 31.8057 12.374C31.9489 12.5661 32.1247 12.7109 32.333 12.8086C32.5413 12.9062 32.7839 12.9551 33.0605 12.9551C33.2917 12.9551 33.4837 12.9355 33.6367 12.8965C33.793 12.8574 33.9183 12.8102 34.0127 12.7549C34.1104 12.6963 34.1852 12.641 34.2373 12.5889V11.3291H32.8994V10.2842H35.7021ZM41.625 9.78613V10.9287H37.9141V9.78613H41.625ZM38.3486 6.89062V14H36.8838V6.89062H38.3486ZM42.6699 6.89062V14H41.21V6.89062H42.6699ZM49.7842 10.2793V10.6162C49.7842 11.1566 49.7109 11.6416 49.5645 12.0713C49.418 12.501 49.2113 12.8672 48.9443 13.1699C48.6774 13.4694 48.3584 13.6989 47.9873 13.8584C47.6195 14.0179 47.2109 14.0977 46.7617 14.0977C46.3158 14.0977 45.9072 14.0179 45.5361 13.8584C45.1683 13.6989 44.8493 13.4694 44.5791 13.1699C44.3089 12.8672 44.099 12.501 43.9492 12.0713C43.8027 11.6416 43.7295 11.1566 43.7295 10.6162V10.2793C43.7295 9.73568 43.8027 9.25065 43.9492 8.82422C44.0957 8.39453 44.3024 8.02832 44.5693 7.72559C44.8395 7.42285 45.1585 7.19173 45.5264 7.03223C45.8975 6.87272 46.306 6.79297 46.752 6.79297C47.2012 6.79297 47.6097 6.87272 47.9775 7.03223C48.3486 7.19173 48.6676 7.42285 48.9346 7.72559C49.2048 8.02832 49.4131 8.39453 49.5596 8.82422C49.7093 9.25065 49.7842 9.73568 49.7842 10.2793ZM48.3047 10.6162V10.2695C48.3047 9.89193 48.2705 9.5599 48.2021 9.27344C48.1338 8.98698 48.0329 8.74609 47.8994 8.55078C47.766 8.35547 47.6032 8.20898 47.4111 8.11133C47.2191 8.01042 46.9993 7.95996 46.752 7.95996C46.5046 7.95996 46.2848 8.01042 46.0928 8.11133C45.904 8.20898 45.7428 8.35547 45.6094 8.55078C45.4792 8.74609 45.3799 8.98698 45.3115 9.27344C45.2432 9.5599 45.209 9.89193 45.209 10.2695V10.6162C45.209 10.9906 45.2432 11.3226 45.3115 11.6123C45.3799 11.8988 45.4808 12.1413 45.6143 12.3398C45.7477 12.5352 45.9105 12.6833 46.1025 12.7842C46.2946 12.8851 46.5143 12.9355 46.7617 12.9355C47.0091 12.9355 47.2288 12.8851 47.4209 12.7842C47.613 12.6833 47.7741 12.5352 47.9043 12.3398C48.0345 12.1413 48.1338 11.8988 48.2021 11.6123C48.2705 11.3226 48.3047 10.9906 48.3047 10.6162ZM54.54 12.1396C54.54 12.0127 54.5205 11.8988 54.4814 11.7979C54.4456 11.6937 54.3773 11.5993 54.2764 11.5146C54.1755 11.4268 54.0339 11.3405 53.8516 11.2559C53.6693 11.1712 53.4333 11.0833 53.1436 10.9922C52.8213 10.888 52.5153 10.7708 52.2256 10.6406C51.9391 10.5104 51.6852 10.359 51.4639 10.1865C51.2458 10.0107 51.0732 9.80729 50.9463 9.57617C50.8226 9.34505 50.7607 9.0765 50.7607 8.77051C50.7607 8.47428 50.8258 8.20573 50.9561 7.96484C51.0863 7.7207 51.2686 7.51237 51.5029 7.33984C51.7373 7.16406 52.014 7.02897 52.333 6.93457C52.6553 6.84017 53.0085 6.79297 53.3926 6.79297C53.9167 6.79297 54.374 6.88737 54.7646 7.07617C55.1553 7.26497 55.458 7.52376 55.6729 7.85254C55.891 8.18132 56 8.55729 56 8.98047H54.5449C54.5449 8.77214 54.501 8.58984 54.4131 8.43359C54.3285 8.27409 54.1982 8.14876 54.0225 8.05762C53.8499 7.96647 53.6318 7.9209 53.3682 7.9209C53.1143 7.9209 52.9027 7.95996 52.7334 8.03809C52.5641 8.11296 52.4372 8.21549 52.3525 8.3457C52.2679 8.47266 52.2256 8.61589 52.2256 8.77539C52.2256 8.89583 52.2549 9.00488 52.3135 9.10254C52.3753 9.2002 52.4665 9.29134 52.5869 9.37598C52.7074 9.46061 52.8555 9.54036 53.0312 9.61523C53.207 9.6901 53.4105 9.76335 53.6416 9.83496C54.029 9.95215 54.3691 10.084 54.6621 10.2305C54.9583 10.377 55.2057 10.5413 55.4043 10.7236C55.6029 10.9059 55.7526 11.1126 55.8535 11.3438C55.9544 11.5749 56.0049 11.8369 56.0049 12.1299C56.0049 12.4391 55.9447 12.7158 55.8242 12.96C55.7038 13.2041 55.5296 13.4108 55.3018 13.5801C55.0739 13.7493 54.8021 13.8779 54.4863 13.9658C54.1706 14.0537 53.8174 14.0977 53.4268 14.0977C53.0752 14.0977 52.7285 14.0521 52.3867 13.9609C52.0449 13.8665 51.734 13.7249 51.4541 13.5361C51.1774 13.3473 50.9561 13.1064 50.79 12.8135C50.624 12.5205 50.541 12.1738 50.541 11.7734H52.0107C52.0107 11.9948 52.0449 12.182 52.1133 12.335C52.1816 12.488 52.2777 12.6117 52.4014 12.7061C52.5283 12.8005 52.6781 12.8688 52.8506 12.9111C53.0264 12.9535 53.2184 12.9746 53.4268 12.9746C53.6807 12.9746 53.889 12.9388 54.0518 12.8672C54.2178 12.7956 54.3398 12.6963 54.418 12.5693C54.4993 12.4424 54.54 12.2992 54.54 12.1396ZM60.1797 6.89062V14H58.7197V6.89062H60.1797ZM62.3672 6.89062V8.03809H56.5664V6.89062H62.3672Z" fill="white"/>
<g clip-path="url(#clip0_2_93)">
<path fill-rule="evenodd" clip-rule="evenodd" d="M16.8091 17.9481C15.4561 18.0173 13.9071 18.0173 13.3807 17.9481C9.27451 17.4079 6 14.4057 6 10.3477C6 6.28966 9.35786 3 13.5 3C17.6421 3 21 6.28966 21 10.3477C21 12.235 20.2736 13.9561 19.0799 15.2574C18.7557 15.6108 19.2005 15.8586 19.6524 16.1105C20.0956 16.3575 20.5457 16.6083 20.2841 16.9662C19.9959 17.3605 18.4334 17.8649 16.8091 17.9481ZM12.4453 9.4292C12.4453 10.0632 11.9206 10.5773 11.2734 10.5773C10.6262 10.5773 10.1016 10.0632 10.1016 9.4292C10.1016 9.00395 10.3375 8.63273 10.6882 8.43431C10.7084 8.98717 11.163 9.42917 11.7208 9.42917H12.4453V9.4292ZM16.0774 8.43431C16.0572 8.98717 15.6027 9.42917 15.0449 9.42917H14.3203V9.4292C14.3203 10.0632 14.845 10.5773 15.4922 10.5773C16.1394 10.5773 16.6641 10.0632 16.6641 9.4292C16.6641 9.00395 16.4281 8.63273 16.0774 8.43431Z" fill="white"/>
</g>
<defs>
<clipPath id="clip0_2_93">
<rect width="15" height="15" fill="white" transform="translate(6 3)"/>
</clipPath>
</defs>
</svg>
