<svg width="75" height="20" viewBox="0 0 75 20" fill="none" xmlns="http://www.w3.org/2000/svg">
<path d="M0 10C0 4.47715 4.47715 0 10 0H65C70.5228 0 75 4.47715 75 10V10C75 15.5228 70.5228 20 65 20H10C4.47715 20 0 15.5228 0 10V10Z" fill="#5FBD58"/>
<path d="M36.6367 10.2842V13.1016C36.526 13.235 36.3551 13.3799 36.124 13.5361C35.8929 13.6891 35.5951 13.821 35.2305 13.9316C34.8659 14.0423 34.4248 14.0977 33.9072 14.0977C33.4482 14.0977 33.0299 14.0228 32.6523 13.873C32.2747 13.7201 31.9492 13.4971 31.6758 13.2041C31.4056 12.9111 31.1973 12.5531 31.0508 12.1299C30.9043 11.7035 30.8311 11.2168 30.8311 10.6699V10.2256C30.8311 9.67871 30.901 9.19206 31.041 8.76562C31.1842 8.33919 31.3877 7.97949 31.6514 7.68652C31.915 7.39355 32.2292 7.17057 32.5938 7.01758C32.9583 6.86458 33.3636 6.78809 33.8096 6.78809C34.4281 6.78809 34.9359 6.889 35.333 7.09082C35.7301 7.28939 36.0329 7.56608 36.2412 7.9209C36.4528 8.27246 36.583 8.67611 36.6318 9.13184H35.2109C35.1751 8.89095 35.1068 8.68099 35.0059 8.50195C34.9049 8.32292 34.7601 8.18294 34.5713 8.08203C34.3857 7.98112 34.1449 7.93066 33.8486 7.93066C33.6045 7.93066 33.3864 7.98112 33.1943 8.08203C33.0055 8.17969 32.846 8.32454 32.7158 8.5166C32.5856 8.70866 32.4863 8.94629 32.418 9.22949C32.3496 9.5127 32.3154 9.84147 32.3154 10.2158V10.6699C32.3154 11.041 32.3512 11.3698 32.4229 11.6562C32.4945 11.9395 32.6003 12.1787 32.7402 12.374C32.8835 12.5661 33.0592 12.7109 33.2676 12.8086C33.4759 12.9062 33.7184 12.9551 33.9951 12.9551C34.2262 12.9551 34.4183 12.9355 34.5713 12.8965C34.7275 12.8574 34.8529 12.8102 34.9473 12.7549C35.0449 12.6963 35.1198 12.641 35.1719 12.5889V11.3291H33.834V10.2842H36.6367ZM37.8184 6.89062H40.4697C41.0133 6.89062 41.4805 6.97201 41.8711 7.13477C42.265 7.29753 42.5677 7.53841 42.7793 7.85742C42.9909 8.17643 43.0967 8.56868 43.0967 9.03418C43.0967 9.41504 43.0316 9.74219 42.9014 10.0156C42.7744 10.2858 42.5938 10.512 42.3594 10.6943C42.1283 10.8734 41.8564 11.0166 41.5439 11.124L41.0801 11.3682H38.7754L38.7656 10.2256H40.4795C40.7367 10.2256 40.9499 10.18 41.1191 10.0889C41.2884 9.99772 41.4154 9.87077 41.5 9.70801C41.5879 9.54525 41.6318 9.35645 41.6318 9.1416C41.6318 8.91374 41.5895 8.7168 41.5049 8.55078C41.4202 8.38477 41.2917 8.25781 41.1191 8.16992C40.9466 8.08203 40.7301 8.03809 40.4697 8.03809H39.2832V14H37.8184V6.89062ZM41.793 14L40.1719 10.8311L41.7197 10.8213L43.3604 13.9316V14H41.793ZM47.1152 8.10645L45.1816 14H43.624L46.2656 6.89062H47.2568L47.1152 8.10645ZM48.7217 14L46.7832 8.10645L46.627 6.89062H47.6279L50.2842 14H48.7217ZM48.6338 11.3535V12.501H44.8789V11.3535H48.6338ZM54.6445 12.1396C54.6445 12.0127 54.625 11.8988 54.5859 11.7979C54.5501 11.6937 54.4818 11.5993 54.3809 11.5146C54.2799 11.4268 54.1383 11.3405 53.9561 11.2559C53.7738 11.1712 53.5378 11.0833 53.248 10.9922C52.9258 10.888 52.6198 10.7708 52.3301 10.6406C52.0436 10.5104 51.7897 10.359 51.5684 10.1865C51.3503 10.0107 51.1777 9.80729 51.0508 9.57617C50.9271 9.34505 50.8652 9.0765 50.8652 8.77051C50.8652 8.47428 50.9303 8.20573 51.0605 7.96484C51.1908 7.7207 51.373 7.51237 51.6074 7.33984C51.8418 7.16406 52.1185 7.02897 52.4375 6.93457C52.7598 6.84017 53.113 6.79297 53.4971 6.79297C54.0212 6.79297 54.4785 6.88737 54.8691 7.07617C55.2598 7.26497 55.5625 7.52376 55.7773 7.85254C55.9954 8.18132 56.1045 8.55729 56.1045 8.98047H54.6494C54.6494 8.77214 54.6055 8.58984 54.5176 8.43359C54.4329 8.27409 54.3027 8.14876 54.127 8.05762C53.9544 7.96647 53.7363 7.9209 53.4727 7.9209C53.2188 7.9209 53.0072 7.95996 52.8379 8.03809C52.6686 8.11296 52.5417 8.21549 52.457 8.3457C52.3724 8.47266 52.3301 8.61589 52.3301 8.77539C52.3301 8.89583 52.3594 9.00488 52.418 9.10254C52.4798 9.2002 52.571 9.29134 52.6914 9.37598C52.8118 9.46061 52.96 9.54036 53.1357 9.61523C53.3115 9.6901 53.515 9.76335 53.7461 9.83496C54.1335 9.95215 54.4736 10.084 54.7666 10.2305C55.0628 10.377 55.3102 10.5413 55.5088 10.7236C55.7074 10.9059 55.8571 11.1126 55.958 11.3438C56.0589 11.5749 56.1094 11.8369 56.1094 12.1299C56.1094 12.4391 56.0492 12.7158 55.9287 12.96C55.8083 13.2041 55.6341 13.4108 55.4062 13.5801C55.1784 13.7493 54.9066 13.8779 54.5908 13.9658C54.2751 14.0537 53.9219 14.0977 53.5312 14.0977C53.1797 14.0977 52.833 14.0521 52.4912 13.9609C52.1494 13.8665 51.8385 13.7249 51.5586 13.5361C51.2819 13.3473 51.0605 13.1064 50.8945 12.8135C50.7285 12.5205 50.6455 12.1738 50.6455 11.7734H52.1152C52.1152 11.9948 52.1494 12.182 52.2178 12.335C52.2861 12.488 52.3822 12.6117 52.5059 12.7061C52.6328 12.8005 52.7826 12.8688 52.9551 12.9111C53.1309 12.9535 53.3229 12.9746 53.5312 12.9746C53.7852 12.9746 53.9935 12.9388 54.1562 12.8672C54.3223 12.7956 54.4443 12.6963 54.5225 12.5693C54.6038 12.4424 54.6445 12.2992 54.6445 12.1396ZM60.8066 12.1396C60.8066 12.0127 60.7871 11.8988 60.748 11.7979C60.7122 11.6937 60.6439 11.5993 60.543 11.5146C60.4421 11.4268 60.3005 11.3405 60.1182 11.2559C59.9359 11.1712 59.6999 11.0833 59.4102 10.9922C59.0879 10.888 58.7819 10.7708 58.4922 10.6406C58.2057 10.5104 57.9518 10.359 57.7305 10.1865C57.5124 10.0107 57.3398 9.80729 57.2129 9.57617C57.0892 9.34505 57.0273 9.0765 57.0273 8.77051C57.0273 8.47428 57.0924 8.20573 57.2227 7.96484C57.3529 7.7207 57.5352 7.51237 57.7695 7.33984C58.0039 7.16406 58.2806 7.02897 58.5996 6.93457C58.9219 6.84017 59.2751 6.79297 59.6592 6.79297C60.1833 6.79297 60.6406 6.88737 61.0312 7.07617C61.4219 7.26497 61.7246 7.52376 61.9395 7.85254C62.1576 8.18132 62.2666 8.55729 62.2666 8.98047H60.8115C60.8115 8.77214 60.7676 8.58984 60.6797 8.43359C60.5951 8.27409 60.4648 8.14876 60.2891 8.05762C60.1165 7.96647 59.8984 7.9209 59.6348 7.9209C59.3809 7.9209 59.1693 7.95996 59 8.03809C58.8307 8.11296 58.7038 8.21549 58.6191 8.3457C58.5345 8.47266 58.4922 8.61589 58.4922 8.77539C58.4922 8.89583 58.5215 9.00488 58.5801 9.10254C58.6419 9.2002 58.7331 9.29134 58.8535 9.37598C58.974 9.46061 59.1221 9.54036 59.2979 9.61523C59.4736 9.6901 59.6771 9.76335 59.9082 9.83496C60.2956 9.95215 60.6357 10.084 60.9287 10.2305C61.2249 10.377 61.4723 10.5413 61.6709 10.7236C61.8695 10.9059 62.0192 11.1126 62.1201 11.3438C62.221 11.5749 62.2715 11.8369 62.2715 12.1299C62.2715 12.4391 62.2113 12.7158 62.0908 12.96C61.9704 13.2041 61.7962 13.4108 61.5684 13.5801C61.3405 13.7493 61.0687 13.8779 60.7529 13.9658C60.4372 14.0537 60.084 14.0977 59.6934 14.0977C59.3418 14.0977 58.9951 14.0521 58.6533 13.9609C58.3115 13.8665 58.0007 13.7249 57.7207 13.5361C57.444 13.3473 57.2227 13.1064 57.0566 12.8135C56.8906 12.5205 56.8076 12.1738 56.8076 11.7734H58.2773C58.2773 11.9948 58.3115 12.182 58.3799 12.335C58.4482 12.488 58.5443 12.6117 58.668 12.7061C58.7949 12.8005 58.9447 12.8688 59.1172 12.9111C59.293 12.9535 59.485 12.9746 59.6934 12.9746C59.9473 12.9746 60.1556 12.9388 60.3184 12.8672C60.4844 12.7956 60.6064 12.6963 60.6846 12.5693C60.766 12.4424 60.8066 12.2992 60.8066 12.1396Z" fill="white"/>
<g clip-path="url(#clip0_2_94)">
<path fill-rule="evenodd" clip-rule="evenodd" d="M6.85387 15.9096C6.80238 15.8612 6.75146 15.8118 6.70114 15.7615C4.04436 13.1048 4.04436 8.79726 6.70114 6.1405C9.3579 3.48372 17.8234 3.30598 17.8234 3.30598C17.8234 3.30598 18.9789 13.1048 16.3222 15.7615C13.9626 18.1211 10.301 18.385 7.65015 16.5534L9.78613 13.9322L13.2007 13.195L10.4134 12.9164L12.1848 11.1128L14.2011 10.6711L12.6067 10.1989L14.2011 7.32266L11.9332 9.86645L11.0574 8.63062L11.3657 10.6711L9.78613 12.4518L9.05391 10.1989V13.195L6.85387 15.9096Z" fill="white"/>
</g>
<defs>
<clipPath id="clip0_2_94">
<rect width="15" height="15" fill="white" transform="translate(4 3)"/>
</clipPath>
</defs>
</svg>
