<svg width="75" height="20" viewBox="0 0 75 20" fill="none" xmlns="http://www.w3.org/2000/svg">
<path d="M0 10C0 4.47715 4.47715 0 10 0H65C70.5228 0 75 4.47715 75 10V10C75 15.5228 70.5228 20 65 20H10C4.47715 20 0 15.5228 0 10V10Z" fill="#DA7C4D"/>
<path d="M32.6328 10.2842V13.1016C32.5221 13.235 32.3512 13.3799 32.1201 13.5361C31.889 13.6891 31.5911 13.821 31.2266 13.9316C30.862 14.0423 30.4209 14.0977 29.9033 14.0977C29.4443 14.0977 29.026 14.0228 28.6484 13.873C28.2708 13.7201 27.9453 13.4971 27.6719 13.2041C27.4017 12.9111 27.1934 12.5531 27.0469 12.1299C26.9004 11.7035 26.8271 11.2168 26.8271 10.6699V10.2256C26.8271 9.67871 26.8971 9.19206 27.0371 8.76562C27.1803 8.33919 27.3838 7.97949 27.6475 7.68652C27.9111 7.39355 28.2253 7.17057 28.5898 7.01758C28.9544 6.86458 29.3597 6.78809 29.8057 6.78809C30.4242 6.78809 30.932 6.889 31.3291 7.09082C31.7262 7.28939 32.029 7.56608 32.2373 7.9209C32.4489 8.27246 32.5791 8.67611 32.6279 9.13184H31.207C31.1712 8.89095 31.1029 8.68099 31.002 8.50195C30.901 8.32292 30.7562 8.18294 30.5674 8.08203C30.3818 7.98112 30.141 7.93066 29.8447 7.93066C29.6006 7.93066 29.3825 7.98112 29.1904 8.08203C29.0016 8.17969 28.8421 8.32454 28.7119 8.5166C28.5817 8.70866 28.4824 8.94629 28.4141 9.22949C28.3457 9.5127 28.3115 9.84147 28.3115 10.2158V10.6699C28.3115 11.041 28.3473 11.3698 28.4189 11.6562C28.4906 11.9395 28.5964 12.1787 28.7363 12.374C28.8796 12.5661 29.0553 12.7109 29.2637 12.8086C29.472 12.9062 29.7145 12.9551 29.9912 12.9551C30.2223 12.9551 30.4144 12.9355 30.5674 12.8965C30.7236 12.8574 30.849 12.8102 30.9434 12.7549C31.041 12.6963 31.1159 12.641 31.168 12.5889V11.3291H29.8301V10.2842H32.6328ZM33.8145 6.89062H36.4658C37.0094 6.89062 37.4766 6.97201 37.8672 7.13477C38.2611 7.29753 38.5638 7.53841 38.7754 7.85742C38.987 8.17643 39.0928 8.56868 39.0928 9.03418C39.0928 9.41504 39.0277 9.74219 38.8975 10.0156C38.7705 10.2858 38.5898 10.512 38.3555 10.6943C38.1243 10.8734 37.8525 11.0166 37.54 11.124L37.0762 11.3682H34.7715L34.7617 10.2256H36.4756C36.7327 10.2256 36.946 10.18 37.1152 10.0889C37.2845 9.99772 37.4115 9.87077 37.4961 9.70801C37.584 9.54525 37.6279 9.35645 37.6279 9.1416C37.6279 8.91374 37.5856 8.7168 37.501 8.55078C37.4163 8.38477 37.2878 8.25781 37.1152 8.16992C36.9427 8.08203 36.7262 8.03809 36.4658 8.03809H35.2793V14H33.8145V6.89062ZM37.7891 14L36.168 10.8311L37.7158 10.8213L39.3564 13.9316V14H37.7891ZM46.0605 10.2793V10.6162C46.0605 11.1566 45.9873 11.6416 45.8408 12.0713C45.6943 12.501 45.4876 12.8672 45.2207 13.1699C44.9538 13.4694 44.6348 13.6989 44.2637 13.8584C43.8958 14.0179 43.4873 14.0977 43.0381 14.0977C42.5921 14.0977 42.1836 14.0179 41.8125 13.8584C41.4447 13.6989 41.1257 13.4694 40.8555 13.1699C40.5853 12.8672 40.3753 12.501 40.2256 12.0713C40.0791 11.6416 40.0059 11.1566 40.0059 10.6162V10.2793C40.0059 9.73568 40.0791 9.25065 40.2256 8.82422C40.3721 8.39453 40.5788 8.02832 40.8457 7.72559C41.1159 7.42285 41.4349 7.19173 41.8027 7.03223C42.1738 6.87272 42.5824 6.79297 43.0283 6.79297C43.4775 6.79297 43.8861 6.87272 44.2539 7.03223C44.625 7.19173 44.944 7.42285 45.2109 7.72559C45.4811 8.02832 45.6895 8.39453 45.8359 8.82422C45.9857 9.25065 46.0605 9.73568 46.0605 10.2793ZM44.5811 10.6162V10.2695C44.5811 9.89193 44.5469 9.5599 44.4785 9.27344C44.4102 8.98698 44.3092 8.74609 44.1758 8.55078C44.0423 8.35547 43.8796 8.20898 43.6875 8.11133C43.4954 8.01042 43.2757 7.95996 43.0283 7.95996C42.7809 7.95996 42.5612 8.01042 42.3691 8.11133C42.1803 8.20898 42.0192 8.35547 41.8857 8.55078C41.7555 8.74609 41.6562 8.98698 41.5879 9.27344C41.5195 9.5599 41.4854 9.89193 41.4854 10.2695V10.6162C41.4854 10.9906 41.5195 11.3226 41.5879 11.6123C41.6562 11.8988 41.7572 12.1413 41.8906 12.3398C42.0241 12.5352 42.1868 12.6833 42.3789 12.7842C42.571 12.8851 42.7907 12.9355 43.0381 12.9355C43.2855 12.9355 43.5052 12.8851 43.6973 12.7842C43.8893 12.6833 44.0505 12.5352 44.1807 12.3398C44.3109 12.1413 44.4102 11.8988 44.4785 11.6123C44.5469 11.3226 44.5811 10.9906 44.5811 10.6162ZM51.041 6.89062H52.501V11.5879C52.501 12.1348 52.3838 12.5954 52.1494 12.9697C51.9183 13.3441 51.5977 13.6257 51.1875 13.8145C50.7806 14.0033 50.3118 14.0977 49.7812 14.0977C49.2507 14.0977 48.7786 14.0033 48.3652 13.8145C47.9551 13.6257 47.6328 13.3441 47.3984 12.9697C47.1673 12.5954 47.0518 12.1348 47.0518 11.5879V6.89062H48.5166V11.5879C48.5166 11.9069 48.5671 12.1673 48.668 12.3691C48.7689 12.571 48.9137 12.7191 49.1025 12.8135C49.2946 12.9079 49.5208 12.9551 49.7812 12.9551C50.0482 12.9551 50.2744 12.9079 50.46 12.8135C50.6488 12.7191 50.792 12.571 50.8896 12.3691C50.9906 12.1673 51.041 11.9069 51.041 11.5879V6.89062ZM59.4932 6.89062V14H58.0283L55.1719 9.23438V14H53.707V6.89062H55.1719L58.0332 11.6611V6.89062H59.4932ZM62.9502 14H61.4023L61.4121 12.8574H62.9502C63.3343 12.8574 63.6582 12.7712 63.9219 12.5986C64.1855 12.4229 64.3841 12.1673 64.5176 11.832C64.6543 11.4967 64.7227 11.0915 64.7227 10.6162V10.2695C64.7227 9.90495 64.6836 9.58431 64.6055 9.30762C64.5306 9.03092 64.4183 8.79818 64.2686 8.60938C64.1188 8.42057 63.9349 8.27897 63.7168 8.18457C63.4987 8.08691 63.248 8.03809 62.9648 8.03809H61.373V6.89062H62.9648C63.4401 6.89062 63.8747 6.97201 64.2686 7.13477C64.6657 7.29427 65.0091 7.52376 65.2988 7.82324C65.5885 8.12272 65.8115 8.48079 65.9678 8.89746C66.1273 9.31087 66.207 9.77148 66.207 10.2793V10.6162C66.207 11.1208 66.1273 11.5814 65.9678 11.998C65.8115 12.4147 65.5885 12.7728 65.2988 13.0723C65.0124 13.3685 64.6689 13.598 64.2686 13.7607C63.8714 13.9202 63.432 14 62.9502 14ZM62.2324 6.89062V14H60.7676V6.89062H62.2324Z" fill="white"/>
<g clip-path="url(#clip0_2_95)">
<path fill-rule="evenodd" clip-rule="evenodd" d="M9.30363 15.8834C9.29956 15.8834 9.29672 15.8794 9.29807 15.8756L13.1276 5.05471C13.1285 5.05235 13.1307 5.05078 13.1332 5.05078H17.2213C17.2238 5.05078 17.2261 5.05237 17.2269 5.05473L20.9996 15.8756C21.0009 15.8794 20.9981 15.8834 20.9941 15.8834H9.41871H9.30363ZM6.0059 15.9258C6.00178 15.9258 5.99894 15.9216 6.00038 15.9178L8.85213 8.30437C8.85299 8.30206 8.85519 8.30054 8.85765 8.30054H11.3355C11.3396 8.30054 11.3424 8.30461 11.341 8.30845L8.58347 15.9219C8.58262 15.9242 8.58041 15.9258 8.57793 15.9258H6.0059Z" fill="white"/>
</g>
<defs>
<clipPath id="clip0_2_95">
<rect width="15" height="15" fill="white" transform="translate(6 3)"/>
</clipPath>
</defs>
</svg>
