<svg width="75" height="20" viewBox="0 0 75 20" fill="none" xmlns="http://www.w3.org/2000/svg">
<path d="M0 10C0 4.47715 4.47715 0 10 0H65C70.5228 0 75 4.47715 75 10V10C75 15.5228 70.5228 20 65 20H10C4.47715 20 0 15.5228 0 10V10Z" fill="#75D0C1"/>
<path d="M40.6436 6.89062V14H39.1836V6.89062H40.6436ZM46.1367 11.6416H47.5967C47.5674 12.1201 47.4355 12.5449 47.2012 12.916C46.9701 13.2871 46.6462 13.5768 46.2295 13.7852C45.8161 13.9935 45.318 14.0977 44.7354 14.0977C44.2796 14.0977 43.8711 14.0195 43.5098 13.8633C43.1484 13.7038 42.8392 13.4759 42.582 13.1797C42.3281 12.8835 42.1344 12.5254 42.001 12.1055C41.8675 11.6855 41.8008 11.2152 41.8008 10.6943V10.2012C41.8008 9.68034 41.8691 9.20996 42.0059 8.79004C42.1458 8.36686 42.3444 8.00716 42.6016 7.71094C42.862 7.41471 43.1729 7.18685 43.5342 7.02734C43.8955 6.86784 44.2992 6.78809 44.7451 6.78809C45.3376 6.78809 45.8372 6.89551 46.2441 7.11035C46.6543 7.3252 46.9717 7.62142 47.1963 7.99902C47.4242 8.37663 47.5609 8.80632 47.6064 9.28809H46.1416C46.1253 9.00163 46.0684 8.75911 45.9707 8.56055C45.873 8.35872 45.7249 8.20736 45.5264 8.10645C45.3311 8.00228 45.0706 7.9502 44.7451 7.9502C44.501 7.9502 44.2878 7.99577 44.1055 8.08691C43.9232 8.17806 43.7702 8.31641 43.6465 8.50195C43.5228 8.6875 43.43 8.92188 43.3682 9.20508C43.3096 9.48503 43.2803 9.8138 43.2803 10.1914V10.6943C43.2803 11.0622 43.3079 11.3861 43.3633 11.666C43.4186 11.9427 43.5033 12.1771 43.6172 12.3691C43.7344 12.5579 43.8841 12.7012 44.0664 12.7988C44.252 12.8932 44.4749 12.9404 44.7354 12.9404C45.0413 12.9404 45.2936 12.8916 45.4922 12.7939C45.6908 12.6963 45.8421 12.5514 45.9463 12.3594C46.0537 12.1673 46.1172 11.9281 46.1367 11.6416ZM53.3291 12.8574V14H49.5449V12.8574H53.3291ZM50.0234 6.89062V14H48.5586V6.89062H50.0234ZM52.8359 9.78613V10.8994H49.5449V9.78613H52.8359ZM53.3242 6.89062V8.03809H49.5449V6.89062H53.3242Z" fill="white"/>
<path fill-rule="evenodd" clip-rule="evenodd" d="M16.2589 4.14381L16.305 8.19703L12.7698 9.89411L12.7262 6.06709L16.2589 4.14381Z" fill="white"/>
<path fill-rule="evenodd" clip-rule="evenodd" d="M19.8028 10.5307L16.3031 12.5324L12.8014 10.5275L16.3013 8.68907L19.8028 10.5307Z" fill="white"/>
<path fill-rule="evenodd" clip-rule="evenodd" d="M12.1789 10.5307L8.67926 12.5324L5.17751 10.5275L8.67744 8.68907L12.1789 10.5307Z" fill="white"/>
<path fill-rule="evenodd" clip-rule="evenodd" d="M8.63994 4.1272L12.2723 5.9262L12.1795 9.84659L8.7498 8.14802L8.63994 4.1272Z" fill="white"/>
<path fill-rule="evenodd" clip-rule="evenodd" d="M16.3578 16.8728L12.7254 15.0738L12.8182 11.1534L16.2479 12.852L16.3578 16.8728Z" fill="white"/>
<path fill-rule="evenodd" clip-rule="evenodd" d="M8.76538 16.9093L8.71921 12.8561L12.2545 11.159L12.2981 14.986L8.76538 16.9093Z" fill="white"/>
</svg>
