<svg width="149" height="149" viewBox="0 0 149 149" fill="none" xmlns="http://www.w3.org/2000/svg">
<g clip-path="url(#clip0_3_2)">
<path d="M140.624 62.8156L140.857 62.8665H41.1531L72.4964 31.4541C74.0312 29.9205 74.8731 27.843 74.8731 25.6625C74.8731 23.482 74.0312 21.4191 72.4964 19.8818L67.6193 15.0024C66.0857 13.4688 64.0421 12.6208 61.8629 12.6208C59.6824 12.6208 57.6376 13.4627 56.1039 14.9963L2.37552 68.7199C0.835856 70.2596 -0.00605497 72.3104 1.937e-06 74.4921C-0.00605497 76.6859 0.835856 78.738 2.37552 80.2753L56.1039 134.004C57.6376 135.536 59.6812 136.379 61.8629 136.379C64.0421 136.379 66.0857 135.535 67.6193 134.004L72.4964 129.124C74.0312 127.593 74.8731 125.548 74.8731 123.368C74.8731 121.188 74.0312 119.251 72.4964 117.719L40.7993 86.1311H140.736C145.227 86.1311 149 82.2607 149 77.7726V70.8713C149 66.3831 145.115 62.8156 140.624 62.8156Z" fill="white"/>
</g>
<defs>
<clipPath id="clip0_3_2">
<rect width="149" height="149" fill="white"/>
</clipPath>
</defs>
</svg>
