<svg width="75" height="20" viewBox="0 0 75 20" fill="none" xmlns="http://www.w3.org/2000/svg">
<path d="M0 10C0 4.47715 4.47715 0 10 0H65C70.5228 0 75 4.47715 75 10V10C75 15.5228 70.5228 20 65 20H10C4.47715 20 0 15.5228 0 10V10Z" fill="#A0A29F"/>
<path d="M31.752 6.89062V14H30.2871L27.4307 9.23438V14H25.9658V6.89062H27.4307L30.292 11.6611V6.89062H31.752ZM38.8662 10.2793V10.6162C38.8662 11.1566 38.793 11.6416 38.6465 12.0713C38.5 12.501 38.2933 12.8672 38.0264 13.1699C37.7594 13.4694 37.4404 13.6989 37.0693 13.8584C36.7015 14.0179 36.293 14.0977 35.8438 14.0977C35.3978 14.0977 34.9893 14.0179 34.6182 13.8584C34.2503 13.6989 33.9313 13.4694 33.6611 13.1699C33.391 12.8672 33.181 12.501 33.0312 12.0713C32.8848 11.6416 32.8115 11.1566 32.8115 10.6162V10.2793C32.8115 9.73568 32.8848 9.25065 33.0312 8.82422C33.1777 8.39453 33.3844 8.02832 33.6514 7.72559C33.9215 7.42285 34.2406 7.19173 34.6084 7.03223C34.9795 6.87272 35.388 6.79297 35.834 6.79297C36.2832 6.79297 36.6917 6.87272 37.0596 7.03223C37.4307 7.19173 37.7497 7.42285 38.0166 7.72559C38.2868 8.02832 38.4951 8.39453 38.6416 8.82422C38.7913 9.25065 38.8662 9.73568 38.8662 10.2793ZM37.3867 10.6162V10.2695C37.3867 9.89193 37.3525 9.5599 37.2842 9.27344C37.2158 8.98698 37.1149 8.74609 36.9814 8.55078C36.848 8.35547 36.6852 8.20898 36.4932 8.11133C36.3011 8.01042 36.0814 7.95996 35.834 7.95996C35.5866 7.95996 35.3669 8.01042 35.1748 8.11133C34.986 8.20898 34.8249 8.35547 34.6914 8.55078C34.5612 8.74609 34.4619 8.98698 34.3936 9.27344C34.3252 9.5599 34.291 9.89193 34.291 10.2695V10.6162C34.291 10.9906 34.3252 11.3226 34.3936 11.6123C34.4619 11.8988 34.5628 12.1413 34.6963 12.3398C34.8298 12.5352 34.9925 12.6833 35.1846 12.7842C35.3766 12.8851 35.5964 12.9355 35.8438 12.9355C36.0911 12.9355 36.3109 12.8851 36.5029 12.7842C36.695 12.6833 36.8561 12.5352 36.9863 12.3398C37.1165 12.1413 37.2158 11.8988 37.2842 11.6123C37.3525 11.3226 37.3867 10.9906 37.3867 10.6162ZM39.9209 6.89062H42.5723C43.1159 6.89062 43.583 6.97201 43.9736 7.13477C44.3675 7.29753 44.6702 7.53841 44.8818 7.85742C45.0934 8.17643 45.1992 8.56868 45.1992 9.03418C45.1992 9.41504 45.1341 9.74219 45.0039 10.0156C44.877 10.2858 44.6963 10.512 44.4619 10.6943C44.2308 10.8734 43.959 11.0166 43.6465 11.124L43.1826 11.3682H40.8779L40.8682 10.2256H42.582C42.8392 10.2256 43.0524 10.18 43.2217 10.0889C43.391 9.99772 43.5179 9.87077 43.6025 9.70801C43.6904 9.54525 43.7344 9.35645 43.7344 9.1416C43.7344 8.91374 43.6921 8.7168 43.6074 8.55078C43.5228 8.38477 43.3942 8.25781 43.2217 8.16992C43.0492 8.08203 42.8327 8.03809 42.5723 8.03809H41.3857V14H39.9209V6.89062ZM43.8955 14L42.2744 10.8311L43.8223 10.8213L45.4629 13.9316V14H43.8955ZM46.9961 6.89062H48.2363L50.0625 12.1104L51.8887 6.89062H53.1289L50.5605 14H49.5645L46.9961 6.89062ZM46.3271 6.89062H47.5625L47.7871 11.9785V14H46.3271V6.89062ZM52.5625 6.89062H53.8027V14H52.3379V11.9785L52.5625 6.89062ZM58.0654 8.10645L56.1318 14H54.5742L57.2158 6.89062H58.207L58.0654 8.10645ZM59.6719 14L57.7334 8.10645L57.5771 6.89062H58.5781L61.2344 14H59.6719ZM59.584 11.3535V12.501H55.8291V11.3535H59.584ZM66.4639 12.8574V14H62.8848V12.8574H66.4639ZM63.3584 6.89062V14H61.8936V6.89062H63.3584Z" fill="white"/>
<g clip-path="url(#clip0_2_97)">
<path fill-rule="evenodd" clip-rule="evenodd" d="M19.0918 10.5C19.0918 14.1405 16.1405 17.0918 12.5 17.0918C8.85945 17.0918 5.9082 14.1405 5.9082 10.5C5.9082 6.85945 8.85945 3.9082 12.5 3.9082C16.1405 3.9082 19.0918 6.85945 19.0918 10.5ZM16.2667 10.5C16.2667 12.5803 14.5803 14.2667 12.5 14.2667C10.4197 14.2667 8.73327 12.5803 8.73327 10.5C8.73327 8.41969 10.4197 6.73327 12.5 6.73327C14.5803 6.73327 16.2667 8.41969 16.2667 10.5Z" fill="white"/>
</g>
<defs>
<clipPath id="clip0_2_97">
<rect width="15" height="15" fill="white" transform="translate(5 3)"/>
</clipPath>
</defs>
</svg>
