<svg width="75" height="20" viewBox="0 0 75 20" fill="none" xmlns="http://www.w3.org/2000/svg">
<path d="M0 10C0 4.47715 4.47715 0 10 0H65C70.5228 0 75 4.47715 75 10V10C75 15.5228 70.5228 20 65 20H10C4.47715 20 0 15.5228 0 10V10Z" fill="#B763CF"/>
<path d="M31.71 11.4658H29.8984V10.3232H31.71C31.9899 10.3232 32.2178 10.2777 32.3936 10.1865C32.5693 10.0921 32.6979 9.96191 32.7793 9.7959C32.8607 9.62988 32.9014 9.44271 32.9014 9.23438C32.9014 9.02279 32.8607 8.82585 32.7793 8.64355C32.6979 8.46126 32.5693 8.31478 32.3936 8.2041C32.2178 8.09342 31.9899 8.03809 31.71 8.03809H30.4062V14H28.9414V6.89062H31.71C32.2666 6.89062 32.7435 6.99154 33.1406 7.19336C33.541 7.39193 33.847 7.66699 34.0586 8.01855C34.2702 8.37012 34.376 8.77214 34.376 9.22461C34.376 9.68359 34.2702 10.0807 34.0586 10.416C33.847 10.7513 33.541 11.0101 33.1406 11.1924C32.7435 11.3747 32.2666 11.4658 31.71 11.4658ZM41.2266 10.2793V10.6162C41.2266 11.1566 41.1533 11.6416 41.0068 12.0713C40.8604 12.501 40.6536 12.8672 40.3867 13.1699C40.1198 13.4694 39.8008 13.6989 39.4297 13.8584C39.0618 14.0179 38.6533 14.0977 38.2041 14.0977C37.7581 14.0977 37.3496 14.0179 36.9785 13.8584C36.6107 13.6989 36.2917 13.4694 36.0215 13.1699C35.7513 12.8672 35.5413 12.501 35.3916 12.0713C35.2451 11.6416 35.1719 11.1566 35.1719 10.6162V10.2793C35.1719 9.73568 35.2451 9.25065 35.3916 8.82422C35.5381 8.39453 35.7448 8.02832 36.0117 7.72559C36.2819 7.42285 36.6009 7.19173 36.9688 7.03223C37.3398 6.87272 37.7484 6.79297 38.1943 6.79297C38.6436 6.79297 39.0521 6.87272 39.4199 7.03223C39.791 7.19173 40.11 7.42285 40.377 7.72559C40.6471 8.02832 40.8555 8.39453 41.002 8.82422C41.1517 9.25065 41.2266 9.73568 41.2266 10.2793ZM39.7471 10.6162V10.2695C39.7471 9.89193 39.7129 9.5599 39.6445 9.27344C39.5762 8.98698 39.4753 8.74609 39.3418 8.55078C39.2083 8.35547 39.0456 8.20898 38.8535 8.11133C38.6615 8.01042 38.4417 7.95996 38.1943 7.95996C37.9469 7.95996 37.7272 8.01042 37.5352 8.11133C37.3464 8.20898 37.1852 8.35547 37.0518 8.55078C36.9215 8.74609 36.8223 8.98698 36.7539 9.27344C36.6855 9.5599 36.6514 9.89193 36.6514 10.2695V10.6162C36.6514 10.9906 36.6855 11.3226 36.7539 11.6123C36.8223 11.8988 36.9232 12.1413 37.0566 12.3398C37.1901 12.5352 37.3529 12.6833 37.5449 12.7842C37.737 12.8851 37.9567 12.9355 38.2041 12.9355C38.4515 12.9355 38.6712 12.8851 38.8633 12.7842C39.0553 12.6833 39.2165 12.5352 39.3467 12.3398C39.4769 12.1413 39.5762 11.8988 39.6445 11.6123C39.7129 11.3226 39.7471 10.9906 39.7471 10.6162ZM43.8389 6.89062V14H42.3789V6.89062H43.8389ZM48.9121 12.1396C48.9121 12.0127 48.8926 11.8988 48.8535 11.7979C48.8177 11.6937 48.7493 11.5993 48.6484 11.5146C48.5475 11.4268 48.4059 11.3405 48.2236 11.2559C48.0413 11.1712 47.8053 11.0833 47.5156 10.9922C47.1934 10.888 46.8874 10.7708 46.5977 10.6406C46.3112 10.5104 46.0573 10.359 45.8359 10.1865C45.6178 10.0107 45.4453 9.80729 45.3184 9.57617C45.1947 9.34505 45.1328 9.0765 45.1328 8.77051C45.1328 8.47428 45.1979 8.20573 45.3281 7.96484C45.4583 7.7207 45.6406 7.51237 45.875 7.33984C46.1094 7.16406 46.3861 7.02897 46.7051 6.93457C47.0273 6.84017 47.3805 6.79297 47.7646 6.79297C48.2887 6.79297 48.7461 6.88737 49.1367 7.07617C49.5273 7.26497 49.8301 7.52376 50.0449 7.85254C50.263 8.18132 50.3721 8.55729 50.3721 8.98047H48.917C48.917 8.77214 48.873 8.58984 48.7852 8.43359C48.7005 8.27409 48.5703 8.14876 48.3945 8.05762C48.222 7.96647 48.0039 7.9209 47.7402 7.9209C47.4863 7.9209 47.2747 7.95996 47.1055 8.03809C46.9362 8.11296 46.8092 8.21549 46.7246 8.3457C46.64 8.47266 46.5977 8.61589 46.5977 8.77539C46.5977 8.89583 46.627 9.00488 46.6855 9.10254C46.7474 9.2002 46.8385 9.29134 46.959 9.37598C47.0794 9.46061 47.2275 9.54036 47.4033 9.61523C47.5791 9.6901 47.7826 9.76335 48.0137 9.83496C48.401 9.95215 48.7412 10.084 49.0342 10.2305C49.3304 10.377 49.5778 10.5413 49.7764 10.7236C49.9749 10.9059 50.1247 11.1126 50.2256 11.3438C50.3265 11.5749 50.377 11.8369 50.377 12.1299C50.377 12.4391 50.3167 12.7158 50.1963 12.96C50.0758 13.2041 49.9017 13.4108 49.6738 13.5801C49.446 13.7493 49.1742 13.8779 48.8584 13.9658C48.5426 14.0537 48.1895 14.0977 47.7988 14.0977C47.4473 14.0977 47.1006 14.0521 46.7588 13.9609C46.417 13.8665 46.1061 13.7249 45.8262 13.5361C45.5495 13.3473 45.3281 13.1064 45.1621 12.8135C44.9961 12.5205 44.9131 12.1738 44.9131 11.7734H46.3828C46.3828 11.9948 46.417 12.182 46.4854 12.335C46.5537 12.488 46.6497 12.6117 46.7734 12.7061C46.9004 12.8005 47.0501 12.8688 47.2227 12.9111C47.3984 12.9535 47.5905 12.9746 47.7988 12.9746C48.0527 12.9746 48.2611 12.9388 48.4238 12.8672C48.5898 12.7956 48.7119 12.6963 48.79 12.5693C48.8714 12.4424 48.9121 12.2992 48.9121 12.1396ZM57.2129 10.2793V10.6162C57.2129 11.1566 57.1396 11.6416 56.9932 12.0713C56.8467 12.501 56.64 12.8672 56.373 13.1699C56.1061 13.4694 55.7871 13.6989 55.416 13.8584C55.0482 14.0179 54.6396 14.0977 54.1904 14.0977C53.7445 14.0977 53.3359 14.0179 52.9648 13.8584C52.597 13.6989 52.278 13.4694 52.0078 13.1699C51.7376 12.8672 51.5277 12.501 51.3779 12.0713C51.2314 11.6416 51.1582 11.1566 51.1582 10.6162V10.2793C51.1582 9.73568 51.2314 9.25065 51.3779 8.82422C51.5244 8.39453 51.7311 8.02832 51.998 7.72559C52.2682 7.42285 52.5872 7.19173 52.9551 7.03223C53.3262 6.87272 53.7347 6.79297 54.1807 6.79297C54.6299 6.79297 55.0384 6.87272 55.4062 7.03223C55.7773 7.19173 56.0964 7.42285 56.3633 7.72559C56.6335 8.02832 56.8418 8.39453 56.9883 8.82422C57.138 9.25065 57.2129 9.73568 57.2129 10.2793ZM55.7334 10.6162V10.2695C55.7334 9.89193 55.6992 9.5599 55.6309 9.27344C55.5625 8.98698 55.4616 8.74609 55.3281 8.55078C55.1947 8.35547 55.0319 8.20898 54.8398 8.11133C54.6478 8.01042 54.4281 7.95996 54.1807 7.95996C53.9333 7.95996 53.7135 8.01042 53.5215 8.11133C53.3327 8.20898 53.1715 8.35547 53.0381 8.55078C52.9079 8.74609 52.8086 8.98698 52.7402 9.27344C52.6719 9.5599 52.6377 9.89193 52.6377 10.2695V10.6162C52.6377 10.9906 52.6719 11.3226 52.7402 11.6123C52.8086 11.8988 52.9095 12.1413 53.043 12.3398C53.1764 12.5352 53.3392 12.6833 53.5312 12.7842C53.7233 12.8851 53.943 12.9355 54.1904 12.9355C54.4378 12.9355 54.6576 12.8851 54.8496 12.7842C55.0417 12.6833 55.2028 12.5352 55.333 12.3398C55.4632 12.1413 55.5625 11.8988 55.6309 11.6123C55.6992 11.3226 55.7334 10.9906 55.7334 10.6162ZM64.0537 6.89062V14H62.5889L59.7324 9.23438V14H58.2676V6.89062H59.7324L62.5938 11.6611V6.89062H64.0537Z" fill="white"/>
<g clip-path="url(#clip0_2_98)">
<path fill-rule="evenodd" clip-rule="evenodd" d="M17.5338 14.5268C19.0486 13.3157 20 11.5657 20 9.61963C20 5.9637 16.6421 3 12.5 3C8.35786 3 5 5.9637 5 9.61963C5 11.4954 5.88399 13.189 7.30435 14.3936C7.21827 14.6908 7.17105 15.0141 7.17105 15.3521C7.17105 16.8145 8.0547 18 9.14475 18C9.85303 18 10.4742 17.4995 10.8224 16.7477C11.1706 17.4995 11.7917 18 12.5 18C13.1456 18 13.7189 17.5841 14.079 16.9411C14.439 17.5841 15.0123 18 15.6579 18C16.7479 18 17.6316 16.8145 17.6316 15.3521C17.6316 15.064 17.5972 14.7865 17.5338 14.5268ZM16.8421 9.75091C16.8421 11.607 14.8539 13.1116 12.4013 13.1116C9.94874 13.1116 7.96054 11.607 7.96054 9.75091C7.96054 7.89483 9.94874 6.39018 12.4013 6.39018C14.8539 6.39018 16.8421 7.89483 16.8421 9.75091Z" fill="white"/>
</g>
<defs>
<clipPath id="clip0_2_98">
<rect width="15" height="15" fill="white" transform="translate(5 3)"/>
</clipPath>
</defs>
</svg>
