<svg width="75" height="20" viewBox="0 0 75 20" fill="none" xmlns="http://www.w3.org/2000/svg">
<path d="M0 10C0 4.47715 4.47715 0 10 0H65C70.5228 0 75 4.47715 75 10V10C75 15.5228 70.5228 20 65 20H10C4.47715 20 0 15.5228 0 10V10Z" fill="#FA8581"/>
<path d="M28.5391 11.4658H26.7275V10.3232H28.5391C28.819 10.3232 29.0469 10.2777 29.2227 10.1865C29.3984 10.0921 29.527 9.96191 29.6084 9.7959C29.6898 9.62988 29.7305 9.44271 29.7305 9.23438C29.7305 9.02279 29.6898 8.82585 29.6084 8.64355C29.527 8.46126 29.3984 8.31478 29.2227 8.2041C29.0469 8.09342 28.819 8.03809 28.5391 8.03809H27.2354V14H25.7705V6.89062H28.5391C29.0957 6.89062 29.5726 6.99154 29.9697 7.19336C30.3701 7.39193 30.6761 7.66699 30.8877 8.01855C31.0993 8.37012 31.2051 8.77214 31.2051 9.22461C31.2051 9.68359 31.0993 10.0807 30.8877 10.416C30.6761 10.7513 30.3701 11.0101 29.9697 11.1924C29.5726 11.3747 29.0957 11.4658 28.5391 11.4658ZM35.917 12.1396C35.917 12.0127 35.8975 11.8988 35.8584 11.7979C35.8226 11.6937 35.7542 11.5993 35.6533 11.5146C35.5524 11.4268 35.4108 11.3405 35.2285 11.2559C35.0462 11.1712 34.8102 11.0833 34.5205 10.9922C34.1982 10.888 33.8923 10.7708 33.6025 10.6406C33.3161 10.5104 33.0622 10.359 32.8408 10.1865C32.6227 10.0107 32.4502 9.80729 32.3232 9.57617C32.1995 9.34505 32.1377 9.0765 32.1377 8.77051C32.1377 8.47428 32.2028 8.20573 32.333 7.96484C32.4632 7.7207 32.6455 7.51237 32.8799 7.33984C33.1143 7.16406 33.391 7.02897 33.71 6.93457C34.0322 6.84017 34.3854 6.79297 34.7695 6.79297C35.2936 6.79297 35.751 6.88737 36.1416 7.07617C36.5322 7.26497 36.835 7.52376 37.0498 7.85254C37.2679 8.18132 37.377 8.55729 37.377 8.98047H35.9219C35.9219 8.77214 35.8779 8.58984 35.79 8.43359C35.7054 8.27409 35.5752 8.14876 35.3994 8.05762C35.2269 7.96647 35.0088 7.9209 34.7451 7.9209C34.4912 7.9209 34.2796 7.95996 34.1104 8.03809C33.9411 8.11296 33.8141 8.21549 33.7295 8.3457C33.6449 8.47266 33.6025 8.61589 33.6025 8.77539C33.6025 8.89583 33.6318 9.00488 33.6904 9.10254C33.7523 9.2002 33.8434 9.29134 33.9639 9.37598C34.0843 9.46061 34.2324 9.54036 34.4082 9.61523C34.584 9.6901 34.7874 9.76335 35.0186 9.83496C35.4059 9.95215 35.7461 10.084 36.0391 10.2305C36.3353 10.377 36.5827 10.5413 36.7812 10.7236C36.9798 10.9059 37.1296 11.1126 37.2305 11.3438C37.3314 11.5749 37.3818 11.8369 37.3818 12.1299C37.3818 12.4391 37.3216 12.7158 37.2012 12.96C37.0807 13.2041 36.9066 13.4108 36.6787 13.5801C36.4508 13.7493 36.179 13.8779 35.8633 13.9658C35.5475 14.0537 35.1943 14.0977 34.8037 14.0977C34.4521 14.0977 34.1055 14.0521 33.7637 13.9609C33.4219 13.8665 33.111 13.7249 32.8311 13.5361C32.5544 13.3473 32.333 13.1064 32.167 12.8135C32.001 12.5205 31.918 12.1738 31.918 11.7734H33.3877C33.3877 11.9948 33.4219 12.182 33.4902 12.335C33.5586 12.488 33.6546 12.6117 33.7783 12.7061C33.9053 12.8005 34.055 12.8688 34.2275 12.9111C34.4033 12.9535 34.5954 12.9746 34.8037 12.9746C35.0576 12.9746 35.266 12.9388 35.4287 12.8672C35.5947 12.7956 35.7168 12.6963 35.7949 12.5693C35.8763 12.4424 35.917 12.2992 35.917 12.1396ZM39.3545 6.89062L40.8389 10.1328L42.3232 6.89062H43.9199L41.5811 11.4121V14H40.0967V11.4121L37.7529 6.89062H39.3545ZM48.5439 11.6416H50.0039C49.9746 12.1201 49.8428 12.5449 49.6084 12.916C49.3773 13.2871 49.0534 13.5768 48.6367 13.7852C48.2233 13.9935 47.7253 14.0977 47.1426 14.0977C46.6868 14.0977 46.2783 14.0195 45.917 13.8633C45.5557 13.7038 45.2464 13.4759 44.9893 13.1797C44.7354 12.8835 44.5417 12.5254 44.4082 12.1055C44.2747 11.6855 44.208 11.2152 44.208 10.6943V10.2012C44.208 9.68034 44.2764 9.20996 44.4131 8.79004C44.5531 8.36686 44.7516 8.00716 45.0088 7.71094C45.2692 7.41471 45.5801 7.18685 45.9414 7.02734C46.3027 6.86784 46.7064 6.78809 47.1523 6.78809C47.7448 6.78809 48.2445 6.89551 48.6514 7.11035C49.0615 7.3252 49.3789 7.62142 49.6035 7.99902C49.8314 8.37663 49.9681 8.80632 50.0137 9.28809H48.5488C48.5326 9.00163 48.4756 8.75911 48.3779 8.56055C48.2803 8.35872 48.1322 8.20736 47.9336 8.10645C47.7383 8.00228 47.4779 7.9502 47.1523 7.9502C46.9082 7.9502 46.695 7.99577 46.5127 8.08691C46.3304 8.17806 46.1774 8.31641 46.0537 8.50195C45.93 8.6875 45.8372 8.92188 45.7754 9.20508C45.7168 9.48503 45.6875 9.8138 45.6875 10.1914V10.6943C45.6875 11.0622 45.7152 11.3861 45.7705 11.666C45.8258 11.9427 45.9105 12.1771 46.0244 12.3691C46.1416 12.5579 46.2913 12.7012 46.4736 12.7988C46.6592 12.8932 46.8822 12.9404 47.1426 12.9404C47.4486 12.9404 47.7008 12.8916 47.8994 12.7939C48.098 12.6963 48.2493 12.5514 48.3535 12.3594C48.4609 12.1673 48.5244 11.9281 48.5439 11.6416ZM55.707 9.78613V10.9287H51.9961V9.78613H55.707ZM52.4307 6.89062V14H50.9658V6.89062H52.4307ZM56.752 6.89062V14H55.292V6.89062H56.752ZM59.584 6.89062V14H58.124V6.89062H59.584ZM65.0771 11.6416H66.5371C66.5078 12.1201 66.376 12.5449 66.1416 12.916C65.9105 13.2871 65.5866 13.5768 65.1699 13.7852C64.7565 13.9935 64.2585 14.0977 63.6758 14.0977C63.2201 14.0977 62.8115 14.0195 62.4502 13.8633C62.0889 13.7038 61.7796 13.4759 61.5225 13.1797C61.2686 12.8835 61.0749 12.5254 60.9414 12.1055C60.8079 11.6855 60.7412 11.2152 60.7412 10.6943V10.2012C60.7412 9.68034 60.8096 9.20996 60.9463 8.79004C61.0863 8.36686 61.2848 8.00716 61.542 7.71094C61.8024 7.41471 62.1133 7.18685 62.4746 7.02734C62.8359 6.86784 63.2396 6.78809 63.6855 6.78809C64.278 6.78809 64.7777 6.89551 65.1846 7.11035C65.5947 7.3252 65.9121 7.62142 66.1367 7.99902C66.3646 8.37663 66.5013 8.80632 66.5469 9.28809H65.082C65.0658 9.00163 65.0088 8.75911 64.9111 8.56055C64.8135 8.35872 64.6654 8.20736 64.4668 8.10645C64.2715 8.00228 64.0111 7.9502 63.6855 7.9502C63.4414 7.9502 63.2282 7.99577 63.0459 8.08691C62.8636 8.17806 62.7106 8.31641 62.5869 8.50195C62.4632 8.6875 62.3704 8.92188 62.3086 9.20508C62.25 9.48503 62.2207 9.8138 62.2207 10.1914V10.6943C62.2207 11.0622 62.2484 11.3861 62.3037 11.666C62.359 11.9427 62.4437 12.1771 62.5576 12.3691C62.6748 12.5579 62.8245 12.7012 63.0068 12.7988C63.1924 12.8932 63.4154 12.9404 63.6758 12.9404C63.9818 12.9404 64.234 12.8916 64.4326 12.7939C64.6312 12.6963 64.7826 12.5514 64.8867 12.3594C64.9941 12.1673 65.0576 11.9281 65.0771 11.6416Z" fill="white"/>
<g clip-path="url(#clip0_2_99)">
<path fill-rule="evenodd" clip-rule="evenodd" d="M18.3572 15.4566C18.3572 15.4566 16.4658 16.9735 12.7019 16.3458C9.84638 15.8695 8.32335 12.7217 8.32335 11.0297C8.32335 7.01804 11.2925 6.10512 13.2998 6.10512C15.3071 6.10512 16.6166 8.06215 16.6166 9.57738C16.6166 11.0926 15.5449 12.4179 13.8771 12.4179C12.2094 12.4179 11.7154 11.2471 11.7154 10.1706C11.7154 9.09422 12.5863 8.71497 13.3806 8.71497C14.1749 8.71497 14.4468 9.39308 14.4468 9.97588C14.4468 10.5587 13.9946 10.7674 13.6175 10.7674C13.2403 10.7674 13.203 10.5771 13.0587 10.3772C12.9143 10.1772 13.2428 9.42029 12.7019 9.42029C12.1611 9.42029 12.0603 10.2904 12.0603 10.2904C12.0603 10.2904 12.2575 11.9701 13.8771 11.9411C15.4968 11.9121 16.2652 10.66 16.0419 9.42029C15.8186 8.18057 14.6154 6.86323 12.5039 7.12942C10.3924 7.39562 9.53023 9.52913 9.91024 11.8091C10.2903 14.0892 13.0217 15.4102 15.1693 14.9349C17.3169 14.4596 19.4559 12.9049 19.4559 8.96288C19.4559 5.02087 16.0419 2.65136 11.9709 3.04187C7.89998 3.43238 5.37292 6.99147 5.53467 11.2678C5.69643 15.5441 9.75415 17.8731 13.1854 17.9931C16.6166 18.1132 18.7201 16.127 18.7201 16.127C18.7201 16.127 19.1931 15.7051 19.0077 15.3757C18.8222 15.0463 18.3572 15.4566 18.3572 15.4566Z" fill="white"/>
</g>
<defs>
<clipPath id="clip0_2_99">
<rect width="15" height="15" fill="white" transform="translate(5 3)"/>
</clipPath>
</defs>
</svg>
