<svg width="75" height="20" viewBox="0 0 75 20" fill="none" xmlns="http://www.w3.org/2000/svg">
<path d="M0 10C0 4.47715 4.47715 0 10 0H65C70.5228 0 75 4.47715 75 10V10C75 15.5228 70.5228 20 65 20H10C4.47715 20 0 15.5228 0 10V10Z" fill="#C9BB8A"/>
<path d="M34.0342 6.89062H36.6855C37.2292 6.89062 37.6963 6.97201 38.0869 7.13477C38.4808 7.29753 38.7835 7.53841 38.9951 7.85742C39.2067 8.17643 39.3125 8.56868 39.3125 9.03418C39.3125 9.41504 39.2474 9.74219 39.1172 10.0156C38.9902 10.2858 38.8096 10.512 38.5752 10.6943C38.3441 10.8734 38.0723 11.0166 37.7598 11.124L37.2959 11.3682H34.9912L34.9814 10.2256H36.6953C36.9525 10.2256 37.1657 10.18 37.335 10.0889C37.5042 9.99772 37.6312 9.87077 37.7158 9.70801C37.8037 9.54525 37.8477 9.35645 37.8477 9.1416C37.8477 8.91374 37.8053 8.7168 37.7207 8.55078C37.6361 8.38477 37.5075 8.25781 37.335 8.16992C37.1624 8.08203 36.946 8.03809 36.6855 8.03809H35.499V14H34.0342V6.89062ZM38.0088 14L36.3877 10.8311L37.9355 10.8213L39.5762 13.9316V14H38.0088ZM46.2803 10.2793V10.6162C46.2803 11.1566 46.207 11.6416 46.0605 12.0713C45.9141 12.501 45.7074 12.8672 45.4404 13.1699C45.1735 13.4694 44.8545 13.6989 44.4834 13.8584C44.1156 14.0179 43.707 14.0977 43.2578 14.0977C42.8118 14.0977 42.4033 14.0179 42.0322 13.8584C41.6644 13.6989 41.3454 13.4694 41.0752 13.1699C40.805 12.8672 40.5951 12.501 40.4453 12.0713C40.2988 11.6416 40.2256 11.1566 40.2256 10.6162V10.2793C40.2256 9.73568 40.2988 9.25065 40.4453 8.82422C40.5918 8.39453 40.7985 8.02832 41.0654 7.72559C41.3356 7.42285 41.6546 7.19173 42.0225 7.03223C42.3936 6.87272 42.8021 6.79297 43.248 6.79297C43.6973 6.79297 44.1058 6.87272 44.4736 7.03223C44.8447 7.19173 45.1637 7.42285 45.4307 7.72559C45.7008 8.02832 45.9092 8.39453 46.0557 8.82422C46.2054 9.25065 46.2803 9.73568 46.2803 10.2793ZM44.8008 10.6162V10.2695C44.8008 9.89193 44.7666 9.5599 44.6982 9.27344C44.6299 8.98698 44.529 8.74609 44.3955 8.55078C44.262 8.35547 44.0993 8.20898 43.9072 8.11133C43.7152 8.01042 43.4954 7.95996 43.248 7.95996C43.0007 7.95996 42.7809 8.01042 42.5889 8.11133C42.4001 8.20898 42.2389 8.35547 42.1055 8.55078C41.9753 8.74609 41.876 8.98698 41.8076 9.27344C41.7393 9.5599 41.7051 9.89193 41.7051 10.2695V10.6162C41.7051 10.9906 41.7393 11.3226 41.8076 11.6123C41.876 11.8988 41.9769 12.1413 42.1104 12.3398C42.2438 12.5352 42.4066 12.6833 42.5986 12.7842C42.7907 12.8851 43.0104 12.9355 43.2578 12.9355C43.5052 12.9355 43.7249 12.8851 43.917 12.7842C44.109 12.6833 44.2702 12.5352 44.4004 12.3398C44.5306 12.1413 44.6299 11.8988 44.6982 11.6123C44.7666 11.3226 44.8008 10.9906 44.8008 10.6162ZM51.4561 11.6416H52.916C52.8867 12.1201 52.7549 12.5449 52.5205 12.916C52.2894 13.2871 51.9655 13.5768 51.5488 13.7852C51.1354 13.9935 50.6374 14.0977 50.0547 14.0977C49.599 14.0977 49.1904 14.0195 48.8291 13.8633C48.4678 13.7038 48.1585 13.4759 47.9014 13.1797C47.6475 12.8835 47.4538 12.5254 47.3203 12.1055C47.1868 11.6855 47.1201 11.2152 47.1201 10.6943V10.2012C47.1201 9.68034 47.1885 9.20996 47.3252 8.79004C47.4652 8.36686 47.6637 8.00716 47.9209 7.71094C48.1813 7.41471 48.4922 7.18685 48.8535 7.02734C49.2148 6.86784 49.6185 6.78809 50.0645 6.78809C50.6569 6.78809 51.1566 6.89551 51.5635 7.11035C51.9736 7.3252 52.291 7.62142 52.5156 7.99902C52.7435 8.37663 52.8802 8.80632 52.9258 9.28809H51.4609C51.4447 9.00163 51.3877 8.75911 51.29 8.56055C51.1924 8.35872 51.0443 8.20736 50.8457 8.10645C50.6504 8.00228 50.39 7.9502 50.0645 7.9502C49.8203 7.9502 49.6071 7.99577 49.4248 8.08691C49.2425 8.17806 49.0895 8.31641 48.9658 8.50195C48.8421 8.6875 48.7493 8.92188 48.6875 9.20508C48.6289 9.48503 48.5996 9.8138 48.5996 10.1914V10.6943C48.5996 11.0622 48.6273 11.3861 48.6826 11.666C48.738 11.9427 48.8226 12.1771 48.9365 12.3691C49.0537 12.5579 49.2035 12.7012 49.3857 12.7988C49.5713 12.8932 49.7943 12.9404 50.0547 12.9404C50.3607 12.9404 50.613 12.8916 50.8115 12.7939C51.0101 12.6963 51.1615 12.5514 51.2656 12.3594C51.373 12.1673 51.4365 11.9281 51.4561 11.6416ZM55.3428 6.89062V14H53.8779V6.89062H55.3428ZM59.6006 6.89062L56.7832 10.4014L55.1572 12.1494L54.8936 10.7627L55.9922 9.25879L57.8037 6.89062H59.6006ZM57.9355 14L55.8408 10.7139L56.9248 9.80566L59.6689 14H57.9355Z" fill="white"/>
<g clip-path="url(#clip0_2_100)">
<path fill-rule="evenodd" clip-rule="evenodd" d="M16.5763 10.1706C16.5755 10.1694 16.5751 10.168 16.5753 10.1665L17.5323 4.58648C17.5327 4.58391 17.535 4.58203 17.5376 4.58203H17.8404C17.8428 4.58203 17.8448 4.58355 17.8455 4.58577L20.0015 11.412C20.0022 11.4142 20.0014 11.4165 19.9997 11.4179L18.4101 12.659C18.4077 12.6608 18.4043 12.6604 18.4025 12.6579L16.5763 10.1706ZM4.9707 13.8698C4.9707 13.8721 4.97219 13.8742 4.97439 13.8749L8.25122 14.9463C8.2528 14.9468 8.25456 14.9466 8.25594 14.9456L15.5804 9.88898C15.5817 9.88813 15.5825 9.88682 15.5827 9.88535L16.3681 4.61509C16.3686 4.61186 16.3661 4.60895 16.3629 4.60895H9.87518C9.87356 4.60895 9.87207 4.60966 9.87104 4.61089L4.97193 10.5209C4.97114 10.5219 4.9707 10.5231 4.9707 10.5243V13.8698ZM9.61669 15.2193L13.1966 16.392C13.1982 16.3925 13.2 16.3922 13.2013 16.3912L17.4634 13.334C17.4658 13.3323 17.4664 13.3291 17.4648 13.3267L15.867 10.9491C15.8654 10.9466 15.862 10.946 15.8596 10.9477L9.61669 15.2193Z" fill="white"/>
</g>
<defs>
<clipPath id="clip0_2_100">
<rect width="15" height="15" fill="white" transform="translate(5 3)"/>
</clipPath>
</defs>
</svg>
