<svg width="75" height="20" viewBox="0 0 75 20" fill="none" xmlns="http://www.w3.org/2000/svg">
<path d="M0 10C0 4.47715 4.47715 0 10 0H65C70.5228 0 75 4.47715 75 10V10C75 15.5228 70.5228 20 65 20H10C4.47715 20 0 15.5228 0 10V10Z" fill="#5695A3"/>
<path d="M35.8242 12.1396C35.8242 12.0127 35.8047 11.8988 35.7656 11.7979C35.7298 11.6937 35.6615 11.5993 35.5605 11.5146C35.4596 11.4268 35.318 11.3405 35.1357 11.2559C34.9535 11.1712 34.7174 11.0833 34.4277 10.9922C34.1055 10.888 33.7995 10.7708 33.5098 10.6406C33.2233 10.5104 32.9694 10.359 32.748 10.1865C32.5299 10.0107 32.3574 9.80729 32.2305 9.57617C32.1068 9.34505 32.0449 9.0765 32.0449 8.77051C32.0449 8.47428 32.11 8.20573 32.2402 7.96484C32.3704 7.7207 32.5527 7.51237 32.7871 7.33984C33.0215 7.16406 33.2982 7.02897 33.6172 6.93457C33.9395 6.84017 34.2926 6.79297 34.6768 6.79297C35.2008 6.79297 35.6582 6.88737 36.0488 7.07617C36.4395 7.26497 36.7422 7.52376 36.957 7.85254C37.1751 8.18132 37.2842 8.55729 37.2842 8.98047H35.8291C35.8291 8.77214 35.7852 8.58984 35.6973 8.43359C35.6126 8.27409 35.4824 8.14876 35.3066 8.05762C35.1341 7.96647 34.916 7.9209 34.6523 7.9209C34.3984 7.9209 34.1868 7.95996 34.0176 8.03809C33.8483 8.11296 33.7214 8.21549 33.6367 8.3457C33.5521 8.47266 33.5098 8.61589 33.5098 8.77539C33.5098 8.89583 33.5391 9.00488 33.5977 9.10254C33.6595 9.2002 33.7507 9.29134 33.8711 9.37598C33.9915 9.46061 34.1396 9.54036 34.3154 9.61523C34.4912 9.6901 34.6947 9.76335 34.9258 9.83496C35.3132 9.95215 35.6533 10.084 35.9463 10.2305C36.2425 10.377 36.4899 10.5413 36.6885 10.7236C36.887 10.9059 37.0368 11.1126 37.1377 11.3438C37.2386 11.5749 37.2891 11.8369 37.2891 12.1299C37.2891 12.4391 37.2288 12.7158 37.1084 12.96C36.988 13.2041 36.8138 13.4108 36.5859 13.5801C36.3581 13.7493 36.0863 13.8779 35.7705 13.9658C35.4548 14.0537 35.1016 14.0977 34.7109 14.0977C34.3594 14.0977 34.0127 14.0521 33.6709 13.9609C33.3291 13.8665 33.0182 13.7249 32.7383 13.5361C32.4616 13.3473 32.2402 13.1064 32.0742 12.8135C31.9082 12.5205 31.8252 12.1738 31.8252 11.7734H33.2949C33.2949 11.9948 33.3291 12.182 33.3975 12.335C33.4658 12.488 33.5618 12.6117 33.6855 12.7061C33.8125 12.8005 33.9622 12.8688 34.1348 12.9111C34.3105 12.9535 34.5026 12.9746 34.7109 12.9746C34.9648 12.9746 35.1732 12.9388 35.3359 12.8672C35.502 12.7956 35.624 12.6963 35.7021 12.5693C35.7835 12.4424 35.8242 12.2992 35.8242 12.1396ZM41.4639 6.89062V14H40.0039V6.89062H41.4639ZM43.6514 6.89062V8.03809H37.8506V6.89062H43.6514ZM49.2568 12.8574V14H45.4727V12.8574H49.2568ZM45.9512 6.89062V14H44.4863V6.89062H45.9512ZM48.7637 9.78613V10.8994H45.4727V9.78613H48.7637ZM49.252 6.89062V8.03809H45.4727V6.89062H49.252ZM54.8818 12.8574V14H51.0977V12.8574H54.8818ZM51.5762 6.89062V14H50.1113V6.89062H51.5762ZM54.3887 9.78613V10.8994H51.0977V9.78613H54.3887ZM54.877 6.89062V8.03809H51.0977V6.89062H54.877ZM60.3066 12.8574V14H56.7275V12.8574H60.3066ZM57.2012 6.89062V14H55.7363V6.89062H57.2012Z" fill="white"/>
<path fill-rule="evenodd" clip-rule="evenodd" d="M4.0015 10.4568C3.9995 10.4534 3.9995 10.4492 4.00149 10.4458L7.77329 4.00149C7.77525 3.99815 7.77886 3.99609 7.78272 3.99609H15.2586C15.2625 3.99609 15.2661 3.99817 15.2681 4.00154L18.9985 10.4459C19.0005 10.4492 19.0005 10.4534 18.9985 10.4568L15.2681 16.8939C15.2661 16.8972 15.2625 16.8993 15.2586 16.8993H7.78272C7.77886 16.8993 7.77525 16.8973 7.77329 16.8939L4.0015 10.4568ZM14.9751 10.4477C14.9751 12.3663 13.4198 13.9216 11.5012 13.9216C9.58258 13.9216 8.02724 12.3663 8.02724 10.4477C8.02724 8.52908 9.58258 6.97377 11.5012 6.97377C13.4198 6.97377 14.9751 8.52908 14.9751 10.4477Z" fill="white"/>
</svg>
