<svg width="75" height="20" viewBox="0 0 75 20" fill="none" xmlns="http://www.w3.org/2000/svg">
<path d="M0 10C0 4.47715 4.47715 0 10 0H65C70.5228 0 75 4.47715 75 10V10C75 15.5228 70.5228 20 65 20H10C4.47715 20 0 15.5228 0 10V10Z" fill="#539DDF"/>
<path d="M32.4082 12.8721L33.8242 6.89062H34.6152L34.7959 7.88672L33.2871 14H32.4375L32.4082 12.8721ZM31.6807 6.89062L32.8525 12.8721L32.7549 14H31.8076L30.2305 6.89062H31.6807ZM36.041 12.8477L37.1982 6.89062H38.6484L37.0762 14H36.1289L36.041 12.8477ZM35.0596 6.89062L36.4854 12.8965L36.4463 14H35.5967L34.0781 7.88184L34.2734 6.89062H35.0596ZM42.1201 8.10645L40.1865 14H38.6289L41.2705 6.89062H42.2617L42.1201 8.10645ZM43.7266 14L41.7881 8.10645L41.6318 6.89062H42.6328L45.2891 14H43.7266ZM43.6387 11.3535V12.501H39.8838V11.3535H43.6387ZM48.5215 6.89062V14H47.0615V6.89062H48.5215ZM50.709 6.89062V8.03809H44.9082V6.89062H50.709ZM56.3145 12.8574V14H52.5303V12.8574H56.3145ZM53.0088 6.89062V14H51.5439V6.89062H53.0088ZM55.8213 9.78613V10.8994H52.5303V9.78613H55.8213ZM56.3096 6.89062V8.03809H52.5303V6.89062H56.3096ZM57.1689 6.89062H59.8203C60.3639 6.89062 60.8311 6.97201 61.2217 7.13477C61.6156 7.29753 61.9183 7.53841 62.1299 7.85742C62.3415 8.17643 62.4473 8.56868 62.4473 9.03418C62.4473 9.41504 62.3822 9.74219 62.252 10.0156C62.125 10.2858 61.9443 10.512 61.71 10.6943C61.4788 10.8734 61.207 11.0166 60.8945 11.124L60.4307 11.3682H58.126L58.1162 10.2256H59.8301C60.0872 10.2256 60.3005 10.18 60.4697 10.0889C60.639 9.99772 60.766 9.87077 60.8506 9.70801C60.9385 9.54525 60.9824 9.35645 60.9824 9.1416C60.9824 8.91374 60.9401 8.7168 60.8555 8.55078C60.7708 8.38477 60.6423 8.25781 60.4697 8.16992C60.2972 8.08203 60.0807 8.03809 59.8203 8.03809H58.6338V14H57.1689V6.89062ZM61.1436 14L59.5225 10.8311L61.0703 10.8213L62.7109 13.9316V14H61.1436Z" fill="white"/>
<path fill-rule="evenodd" clip-rule="evenodd" d="M18.3683 12.1518C18.3683 14.829 16.1898 16.9993 13.5025 16.9993C10.8152 16.9993 8.63672 14.829 8.63672 12.1518C8.63672 9.54802 13.2393 2.39691 13.4917 2.00667C13.4975 1.99778 13.5076 1.99778 13.5133 2.00667C13.7657 2.39691 18.3683 9.54802 18.3683 12.1518ZM12.6914 15.4452C10.2223 14.905 10.6448 12.1698 10.6448 12.1698C10.6448 12.1698 11.319 13.8209 12.9552 14.3558C14.5914 14.8906 16.5687 14.1062 16.5687 14.1062C16.5687 14.1062 15.1605 15.9855 12.6914 15.4452Z" fill="white"/>
</svg>
